<?xml version="1.0" encoding="UTF-8"?>
<svg xmlns="http://www.w3.org/2000/svg" viewBox="0 0 76.4 76.4">
  <defs>
    <style>
      .cls-1 {
        fill: #fff;
      }

      .cls-2 {
        isolation: isolate;
      }

      .cls-3 {
        fill: #0071ce;
      }

      .cls-4 {
        fill: #29789c;
        mix-blend-mode: multiply;
        opacity: .2;
      }
    </style>
  </defs>
  <g class="cls-2">
    <g id="Layer_2" data-name="Layer 2">
      <g id="Layer_1-2" data-name="Layer 1">
        <g>
          <circle class="cls-3" cx="38.2" cy="38.2" r="38.2"/>
          <path class="cls-4" d="M38.2,0C17.1,0,0,17.1,0,38.2c0,10.62,4.34,20.21,11.32,27.14L65.34,11.32C58.41,4.34,48.82,0,38.2,0Z"/>
          <path class="cls-1" d="M45.61,45.28c-3.89,4.1-10.37,4.22-14.47,.33-2.05-1.92-3.18-4.64-3.18-7.45,0-5.65,4.6-10.25,10.25-10.25s10.25,4.6,10.25,10.25v3.05c0,1.72,1.38,3.05,3.05,3.05s3.05-1.38,3.05-3.05v-3.05c0-9.04-7.36-16.4-16.4-16.4s-16.4,7.36-16.4,16.4,7.36,16.4,16.4,16.4c2.13,0,4.27-.42,6.27-1.25,1-.5,2.26-.13,2.76,.92,.5,1.05,.13,2.26-.92,2.76-.08,.04-.17,.08-.29,.13-10.46,4.35-22.46-.63-26.77-11.08-4.31-10.46,.63-22.46,11.08-26.77,10.46-4.31,22.46,.63,26.77,11.08,1.13,2.47,1.67,5.15,1.67,7.82v3.05c0,3.97-3.18,7.19-7.15,7.19-2.38,.04-4.64-1.17-5.98-3.14Zm-7.36-.96c3.39,0,6.15-2.76,6.15-6.15s-2.76-6.15-6.15-6.15-6.15,2.76-6.15,6.15,2.76,6.15,6.15,6.15Z"/>
        </g>
      </g>
    </g>
  </g>
</svg>