<?xml version="1.0" encoding="UTF-8"?>
<svg id="Layer_2" data-name="Layer 2" xmlns="http://www.w3.org/2000/svg" viewBox="0 0 72.62 69.22">
  <defs>
    <style>
      .cls-1 {
        fill: #fff;
      }
    </style>
  </defs>
  <g id="Layer_1-2" data-name="Layer 1">
    <g>
      <path class="cls-1" d="M27.66,33.5c-.33,0-.6-.27-.6-.6,0-.33,.27-.6,.6-.6l43.77-.07V1.19H1.72l-.52,31.11h7c.33,0,.6,.27,.6,.6s-.27,.6-.6,.6H.6c-.16,0-.31-.06-.43-.18-.11-.11-.17-.27-.17-.43L.54,.59c0-.33,.27-.59,.6-.59H72.03c.33,0,.6,.27,.6,.6V32.82c0,.33-.27,.6-.6,.6l-44.37,.08h0Z"/>
      <path class="cls-1" d="M62.42,8.88h-3.38c-.33,0-.6-.27-.6-.6s.27-.6,.6-.6h3.38c.33,0,.6,.27,.6,.6s-.27,.6-.6,.6Zm-8,0h-3.46c-.33,0-.6-.27-.6-.6s.27-.6,.6-.6h3.46c.33,0,.6,.27,.6,.6s-.27,.6-.6,.6Zm-8.07,0h-3.46c-.33,0-.6-.27-.6-.6s.27-.6,.6-.6h3.46c.33,0,.6,.27,.6,.6s-.27,.6-.6,.6Zm-8.08,0h-3.46c-.33,0-.6-.27-.6-.6s.27-.6,.6-.6h3.46c.33,0,.6,.27,.6,.6s-.27,.6-.6,.6Zm-8.07,0h-3.38c-.33,0-.6-.27-.6-.6s.27-.6,.6-.6h3.38c.33,0,.6,.27,.6,.6s-.27,.6-.6,.6Zm-8.08,0h-3.38c-.33,0-.6-.27-.6-.6s.27-.6,.6-.6h3.38c.33,0,.6,.27,.6,.6s-.27,.6-.6,.6Zm-7.99,0h-3.46c-.33,0-.6-.27-.6-.6s.27-.6,.6-.6h3.46c.33,0,.6,.27,.6,.6s-.27,.6-.6,.6Z"/>
      <path class="cls-1" d="M62.42,15.71h-3.38c-.33,0-.6-.27-.6-.6s.27-.6,.6-.6h3.38c.33,0,.6,.27,.6,.6s-.27,.6-.6,.6Zm-8,0h-3.46c-.33,0-.6-.27-.6-.6s.27-.6,.6-.6h3.46c.33,0,.6,.27,.6,.6s-.27,.6-.6,.6Zm-8.07,0h-3.46c-.33,0-.6-.27-.6-.6s.27-.6,.6-.6h3.46c.33,0,.6,.27,.6,.6s-.27,.6-.6,.6Zm-8.08,0h-3.46c-.33,0-.6-.27-.6-.6s.27-.6,.6-.6h3.46c.33,0,.6,.27,.6,.6s-.27,.6-.6,.6Zm-8.07,0h-3.38c-.33,0-.6-.27-.6-.6s.27-.6,.6-.6h3.38c.33,0,.6,.27,.6,.6s-.27,.6-.6,.6Zm-8.08,0h-3.38c-.33,0-.6-.27-.6-.6s.27-.6,.6-.6h3.38c.33,0,.6,.27,.6,.6s-.27,.6-.6,.6Zm-7.99,0h-3.46c-.33,0-.6-.27-.6-.6s.27-.6,.6-.6h3.46c.33,0,.6,.27,.6,.6s-.27,.6-.6,.6Z"/>
      <path class="cls-1" d="M62.42,22.78h-3.38c-.33,0-.6-.27-.6-.6s.27-.6,.6-.6h3.38c.33,0,.6,.27,.6,.6s-.27,.6-.6,.6Zm-8,0h-3.46c-.33,0-.6-.27-.6-.6s.27-.6,.6-.6h3.46c.33,0,.6,.27,.6,.6s-.27,.6-.6,.6Z"/>
      <path class="cls-1" d="M45.88,22.78H27.59c-.33,0-.6-.27-.6-.6s.27-.6,.6-.6h18.3c.33,0,.6,.27,.6,.6s-.27,.6-.6,.6Z"/>
      <path class="cls-1" d="M12.9,49.18H7.9c-.33,0-.6-.27-.6-.6V28.24c0-.33,.27-.6,.6-.6h5c.33,0,.6,.27,.6,.6v20.34c0,.33-.27,.6-.6,.6Zm-4.41-1.19h3.81V28.84h-3.81v19.15Z"/>
      <path class="cls-1" d="M17.97,49.18h-5.07c-.33,0-.6-.27-.6-.6V25.06c0-.33,.27-.6,.6-.6h5.07c.33,0,.6,.27,.6,.6v23.53c0,.33-.27,.6-.6,.6Zm-4.47-1.19h3.88V25.65h-3.88v22.34Z"/>
      <path class="cls-1" d="M23.05,49.18h-5.07c-.33,0-.6-.27-.6-.6V21.56c0-.33,.27-.6,.6-.6h5.07c.33,0,.6,.27,.6,.6v27.02c0,.33-.27,.6-.6,.6Zm-4.48-1.19h3.88V22.16h-3.88v25.83Z"/>
      <path class="cls-1" d="M28.12,49.18h-5.07c-.33,0-.6-.27-.6-.6V17.37c0-.33,.27-.6,.6-.6h5.07c.33,0,.6,.27,.6,.6v31.22c0,.33-.27,.6-.6,.6Zm-4.48-1.19h3.88V17.96h-3.88v30.02Z"/>
      <path class="cls-1" d="M33.19,49.18h-5.07c-.33,0-.6-.27-.6-.6v-11.03c0-.33,.27-.6,.6-.6h5.07c.33,0,.6,.27,.6,.6v11.03c0,.33-.27,.6-.6,.6Zm-4.48-1.19h3.88v-9.84h-3.88v9.84Z"/>
      <path class="cls-1" d="M65.65,69.22h-5.07c-.33,0-.6-.27-.6-.6v-20.35c0-.33,.27-.6,.6-.6h5.07c.33,0,.6,.27,.6,.6v20.35c0,.33-.27,.6-.6,.6Zm-4.48-1.19h3.88v-19.15h-3.88v19.15Z"/>
      <path class="cls-1" d="M60.57,69.22h-5.08c-.33,0-.6-.27-.6-.6v-23.45c0-.33,.27-.6,.6-.6h5.08c.33,0,.6,.27,.6,.6v23.45c0,.33-.27,.6-.6,.6Zm-4.48-1.19h3.88v-22.26h-3.88v22.26Z"/>
      <path class="cls-1" d="M55.5,69.22h-5.07c-.33,0-.6-.27-.6-.6v-26.95c0-.33,.27-.6,.6-.6h5.07c.33,0,.6,.27,.6,.6v26.95c0,.33-.27,.6-.6,.6Zm-4.48-1.19h3.88v-25.75h-3.88v25.75Z"/>
      <path class="cls-1" d="M50.42,69.22h-5.07c-.33,0-.6-.27-.6-.6v-31.13c0-.33,.27-.6,.6-.6h5.07c.33,0,.6,.27,.6,.6v31.13c0,.33-.27,.6-.6,.6Zm-4.48-1.19h3.88v-29.94h-3.88v29.94Z"/>
      <path class="cls-1" d="M45.35,69.22h-5.08c-.33,0-.6-.27-.6-.6v-11.02c0-.33,.27-.6,.6-.6h5.08c.33,0,.6,.27,.6,.6v11.02c0,.33-.27,.6-.6,.6Zm-4.48-1.19h3.88v-9.83h-3.88v9.83Z"/>
    </g>
  </g>
</svg>