<?xml version="1.0" encoding="UTF-8"?>
<svg id="Layer_2" data-name="Layer 2" xmlns="http://www.w3.org/2000/svg" viewBox="0 0 63.44 72.62">
  <defs>
    <style>
      .cls-1 {
        fill: #fff;
      }
    </style>
  </defs>
  <g id="Layer_1-2" data-name="Layer 1">
    <g>
      <path class="cls-1" d="M31.71,48.63c-6.71,0-12.17-5.51-12.17-12.29s5.46-12.36,12.17-12.36,12.24,5.54,12.24,12.36-5.49,12.29-12.24,12.29Zm0-23.45c-6.05,0-10.98,5.01-10.98,11.16s4.93,11.09,10.98,11.09,11.04-4.98,11.04-11.09-4.95-11.16-11.04-11.16Z"/>
      <path class="cls-1" d="M28.49,66.95c-.1,0-.21-.03-.3-.08L7.26,54.7c-.28-.17-.38-.53-.22-.82,.16-.29,.53-.38,.82-.22l20.94,12.17c.28,.17,.38,.53,.21,.82-.11,.19-.31,.3-.52,.3Zm6.49,0c-.21,0-.4-.11-.52-.3-.17-.28-.07-.65,.22-.82l20.87-12.17c.28-.16,.65-.07,.82,.22,.17,.28,.07,.65-.21,.82l-20.88,12.17c-.09,.06-.2,.08-.3,.08Zm24.16-17.84c-.33,0-.6-.27-.6-.6V24.11c0-.33,.27-.6,.6-.6s.6,.27,.6,.6v24.4c0,.33-.27,.6-.6,.6Zm-54.8,0c-.33,0-.6-.27-.6-.6V24.11c0-.33,.27-.6,.6-.6s.6,.27,.6,.6v24.4c0,.33-.27,.6-.6,.6ZM55.86,19.04c-.1,0-.21-.03-.3-.08L34.69,6.79c-.28-.17-.38-.53-.22-.82,.17-.28,.53-.38,.82-.22l20.88,12.17c.28,.17,.38,.53,.22,.82-.11,.19-.31,.3-.52,.3Zm-48.3,0c-.21,0-.41-.11-.52-.3-.16-.28-.07-.65,.22-.82L28.19,5.76c.28-.17,.65-.07,.82,.22,.17,.28,.07,.65-.21,.82L7.86,18.96c-.09,.05-.2,.08-.3,.08Z"/>
      <path class="cls-1" d="M31.71,72.62c-2.4,0-4.35-1.97-4.35-4.38,0-2.21,1.63-4.05,3.75-4.34v-15.87c0-.33,.27-.6,.6-.6s.6,.27,.6,.6v15.87c2.11,.29,3.75,2.13,3.75,4.34,0,2.42-1.95,4.38-4.34,4.38Zm0-7.57c-1.74,0-3.15,1.43-3.15,3.19s1.41,3.19,3.15,3.19,3.15-1.43,3.15-3.19-1.41-3.19-3.15-3.19ZM4.35,56.66c-.36,0-.73-.05-1.09-.14-1.11-.29-2.08-1.03-2.65-2.03-.6-1.03-.77-2.22-.46-3.35,.3-1.11,1.02-2.04,2.02-2.6,1.01-.6,2.19-.77,3.31-.46,.91,.25,1.7,.78,2.26,1.53l13.63-7.96c.28-.16,.65-.07,.82,.21,.17,.28,.07,.65-.21,.82l-13.63,7.96c.38,.9,.45,1.89,.19,2.84-.3,1.11-1.02,2.03-2.02,2.59-.66,.4-1.4,.6-2.16,.6Zm.03-7.54c-.55,0-1.1,.15-1.6,.45-.74,.41-1.26,1.08-1.47,1.88-.22,.82-.1,1.69,.34,2.44,0,0,0,0,0,0,.41,.72,1.11,1.26,1.92,1.47,.8,.21,1.63,.09,2.35-.34,.73-.41,1.25-1.07,1.47-1.87,.22-.83,.11-1.7-.34-2.45h0s0-.02-.01-.02c-.41-.73-1.07-1.25-1.85-1.46-.26-.07-.53-.11-.8-.11Zm54.71,7.54c-.76,0-1.49-.21-2.14-.61-1.88-1.05-2.65-3.38-1.86-5.4l-13.58-7.97c-.28-.17-.38-.53-.21-.82,.17-.28,.53-.38,.82-.21l13.57,7.96c.61-.78,1.44-1.33,2.39-1.56,1.1-.27,2.23-.1,3.19,.5,2.05,1.15,2.78,3.82,1.61,5.93,0,0,0,.01-.01,.02-.62,1.03-1.64,1.77-2.79,2.05-.33,.08-.66,.12-.98,.12Zm-.02-7.54c-.24,0-.48,.03-.72,.09-.83,.21-1.53,.74-1.98,1.5-.84,1.54-.32,3.48,1.18,4.31,.68,.42,1.47,.55,2.24,.36,.84-.2,1.58-.75,2.04-1.5,.84-1.54,.31-3.47-1.18-4.31-.49-.3-1.03-.46-1.58-.46Zm-17.26-18.05c-.2,0-.4-.11-.51-.29-.17-.28-.07-.65,.21-.82l13.58-7.97c-.35-.88-.4-1.88-.14-2.81,.31-1.13,1.04-2.05,2.03-2.61,2-1.17,4.65-.47,5.88,1.56,0,0,0,.01,.01,.02,1.17,2.12,.46,4.76-1.62,6-1.86,1.09-4.24,.57-5.57-1.13l-13.57,7.96c-.09,.06-.2,.08-.3,.08Zm14.57-9.13c.89,1.51,2.8,2.05,4.27,1.2,1.52-.91,2.04-2.83,1.19-4.39-.9-1.47-2.81-1.98-4.27-1.14-.72,.4-1.24,1.07-1.47,1.89-.23,.83-.13,1.71,.28,2.43h0ZM21.67,31.06c-.1,0-.21-.03-.3-.08l-13.62-7.95c-.55,.74-1.33,1.28-2.24,1.53-1.12,.32-2.3,.18-3.33-.4C.06,22.89-.62,20.25,.61,18.14c1.16-2.04,3.81-2.74,5.9-1.57,1.01,.56,1.73,1.5,2.03,2.64,.24,.93,.17,1.92-.19,2.78l13.63,7.96c.28,.17,.38,.53,.21,.82-.11,.19-.31,.3-.52,.3ZM4.35,17.2c-1.09,0-2.14,.55-2.7,1.54,0,0,0,0,0,0-.9,1.54-.4,3.47,1.13,4.39,.73,.41,1.59,.52,2.41,.29,.79-.23,1.45-.75,1.85-1.48,0,0,0,0,0-.02,0,0,0-.02,.01-.02,.43-.72,.54-1.58,.33-2.39-.22-.82-.73-1.5-1.46-1.9-.5-.28-1.04-.41-1.58-.41Zm27.36,7.99c-.33,0-.6-.27-.6-.6V8.73c-2.12-.29-3.75-2.13-3.75-4.34,0-2.42,1.95-4.38,4.35-4.38s4.34,1.97,4.34,4.38c0,2.21-1.63,4.05-3.75,4.34v15.86c0,.33-.27,.6-.6,.6Zm0-23.99c-1.74,0-3.15,1.43-3.15,3.19s1.41,3.19,3.15,3.19,3.15-1.43,3.15-3.19-1.41-3.19-3.15-3.19Z"/>
      <path class="cls-1" d="M36.79,42.01h-10.1c-1.69,0-3.07-1.36-3.07-3.03s1.41-3.09,3.07-3.09c.05,0,.1,0,.16,0,.32-.97,1.07-1.71,2.02-2,.24-1.85,1.84-3.28,3.78-3.28s3.64,1.56,3.8,3.54c.7,.4,1.25,.99,1.55,1.67,1.14,.49,1.81,1.53,1.81,2.83,0,1.56-1.31,3.37-3,3.37Zm-10.1-4.93c-1,0-1.88,.89-1.88,1.9s.84,1.84,1.88,1.84h10.1c.93,0,1.81-1.22,1.81-2.17,0-1.14-.69-1.61-1.26-1.8-.18-.06-.32-.2-.38-.38-.2-.59-.69-1.1-1.36-1.4-.21-.1-.35-.31-.35-.54,0-1.53-1.17-2.72-2.62-2.72s-2.62,1.18-2.62,2.58c0,.3-.22,.56-.52,.59-.84,.1-1.52,.82-1.62,1.71-.02,.18-.12,.33-.27,.43-.15,.1-.33,.12-.5,.07-.2-.06-.34-.1-.43-.1Z"/>
      <path class="cls-1" d="M33.85,56.54c-.2,0-.4-.11-.52-.3-.17-.28-.07-.65,.21-.82l13.65-7.97c.28-.16,.65-.07,.82,.21,.17,.28,.07,.65-.21,.82l-13.65,7.97c-.1,.05-.2,.08-.3,.08Zm-4.22,0c-.1,0-.21-.03-.3-.08l-13.65-7.97c-.28-.17-.38-.53-.21-.82,.17-.28,.53-.38,.82-.21l13.65,7.97c.28,.17,.38,.53,.21,.82-.11,.19-.31,.3-.52,.3Zm19.94-11.7c-.33,0-.6-.27-.6-.6v-15.88c0-.33,.27-.6,.6-.6s.6,.27,.6,.6v15.88c0,.33-.27,.6-.6,.6Zm-35.73,0c-.33,0-.6-.27-.6-.6v-15.88c0-.33,.27-.6,.6-.6s.6,.27,.6,.6v15.88c0,.33-.27,.6-.6,.6ZM47.5,25.25c-.1,0-.21-.03-.3-.08l-13.65-7.97c-.28-.17-.38-.53-.21-.82,.17-.28,.53-.38,.82-.21l13.65,7.97c.28,.17,.38,.53,.21,.82-.11,.19-.31,.3-.52,.3Zm-31.51,0c-.2,0-.4-.11-.52-.3-.17-.28-.07-.65,.21-.82l13.65-7.97c.28-.16,.65-.07,.82,.21,.17,.28,.07,.65-.21,.82l-13.65,7.97c-.09,.05-.2,.08-.3,.08Z"/>
    </g>
  </g>
</svg>