<?xml version="1.0" encoding="UTF-8"?>
<svg xmlns="http://www.w3.org/2000/svg" viewBox="0 0 76.4 76.4">
  <defs>
    <style>
      .cls-1 {
        fill: #fff;
      }

      .cls-2 {
        isolation: isolate;
      }

      .cls-3 {
        fill: #0071ce;
      }

      .cls-4 {
        fill: #29789c;
        mix-blend-mode: multiply;
        opacity: .2;
      }
    </style>
  </defs>
  <g class="cls-2">
    <g id="Layer_2" data-name="Layer 2">
      <g id="Layer_1-2" data-name="Layer 1">
        <g>
          <circle class="cls-3" cx="38.2" cy="38.2" r="38.2"/>
          <path class="cls-4" d="M38.2,0C17.1,0,0,17.1,0,38.2c0,10.32,4.11,19.68,10.77,26.55L64.75,10.77C57.88,4.11,48.53,0,38.2,0Z"/>
          <path class="cls-1" d="M56.72,48.58c-2.68-.78-10.42-4.58-11.31-3.79-.88,.79-4.64,4.13-4.64,4.13-2.48-.56-6.79-4.06-9.05-6.6-2.26-2.54-5.24-7.22-5.51-9.75,0,0,3.76-3.35,4.64-4.13,.88-.79-2-8.91-2.47-11.67-.47-2.75-4.89-2.38-6.81-1.86-1.92,.52-10.12,14.56,5.23,31.79,15.35,17.23,30.24,10.7,30.98,8.85,.73-1.84,1.61-6.19-1.07-6.98Z"/>
        </g>
      </g>
    </g>
  </g>
</svg>