<?xml version="1.0" encoding="UTF-8"?>
<svg id="Layer_2" data-name="Layer 2" xmlns="http://www.w3.org/2000/svg" viewBox="0 0 72.57 62.57">
  <defs>
    <style>
      .cls-1 {
        fill: #fff;
      }
    </style>
  </defs>
  <g id="Layer_1-2" data-name="Layer 1">
    <g>
      <path class="cls-1" d="M23.82,54.73H11.2c-6.18,0-11.2-5.07-11.2-11.3s5.02-11.3,11.2-11.3c.73,0,1.46,.08,2.24,.26,.76-4.8,4.41-8.57,9.15-9.41,.35-7.71,6.75-13.9,14.5-13.9s14.44,6.5,14.52,14.51c3.26,1.53,5.87,4.3,7.23,7.68,4.72,1.75,7.42,5.6,7.42,10.6,0,5.79-4.99,12.77-11.2,12.77h-11.16c-.33,0-.6-.27-.6-.6s.27-.6,.6-.6h11.16c5.39,0,10-6.37,10-11.58,0-4.62-2.44-8.02-6.88-9.57-.17-.06-.3-.19-.36-.35-1.26-3.33-3.82-6.03-7.04-7.43-.22-.09-.36-.31-.36-.55v-.24c0-7.42-5.98-13.46-13.32-13.46s-13.25,5.93-13.32,13.22c0,.3-.22,.55-.52,.58-4.66,.62-8.25,4.36-8.71,9.11-.02,.18-.11,.33-.26,.43-.15,.1-.33,.13-.5,.08-.94-.26-1.76-.38-2.59-.38-5.52,0-10.01,4.53-10.01,10.11s4.49,10.11,10.01,10.11h12.62c.33,0,.6,.27,.6,.6s-.27,.6-.6,.6Z"/>
      <path class="cls-1" d="M41.63,62.57h-15.62c-1.27,0-2.35-1.1-2.46-2.51l-.08-13.04c0-.16,.06-.31,.17-.42,.11-.11,.26-.18,.42-.18h19.42c.33,0,.6,.27,.6,.6v12.84c0,1.5-1.1,2.71-2.46,2.71Zm-16.96-14.95l.07,12.4c.06,.73,.63,1.37,1.27,1.37h15.62c.7,0,1.26-.68,1.26-1.52v-12.24H24.67Z"/>
      <path class="cls-1" d="M39.92,47.62h-12.3c-.33,0-.6-.27-.6-.6v-3.27c0-3.69,3.09-6.81,6.75-6.81s6.74,3.12,6.74,6.81v3.27c0,.33-.27,.6-.6,.6Zm-11.7-1.19h11.11v-2.68c0-3.05-2.54-5.62-5.55-5.62s-5.55,2.57-5.55,5.62v2.68Z"/>
      <path class="cls-1" d="M36.69,44.84h-5.75c-.33,0-.6-.27-.6-.6v-1.06c0-1.92,1.57-3.53,3.43-3.53s3.51,1.62,3.51,3.53v1.06c0,.33-.27,.6-.6,.6Zm-5.15-1.19h4.55v-.47c0-1.27-1.06-2.34-2.32-2.34-1.19,0-2.24,1.09-2.24,2.34v.47Z"/>
      <path class="cls-1" d="M43.49,51.62H23.9c-.33,0-.6-.27-.6-.6s.27-.6,.6-.6h19.58c.33,0,.6,.27,.6,.6s-.27,.6-.6,.6Z"/>
      <path class="cls-1" d="M33.78,60.2c-.33,0-.6-.27-.6-.6v-4.38h-2.16c-.33,0-.6-.27-.6-.6s.27-.6,.6-.6h2.16c.01-.32,.27-.57,.6-.57s.58,.25,.6,.57h2.15c.33,0,.6,.27,.6,.6s-.27,.6-.6,.6h-2.15v4.38c0,.33-.27,.6-.6,.6Z"/>
      <path class="cls-1" d="M63.15,18.03h-13.19c-.33,0-.6-.27-.6-.6s.27-.6,.6-.6h13.19c.33,0,.6,.27,.6,.6s-.27,.6-.6,.6Z"/>
      <path class="cls-1" d="M50.85,18.03c-.15,0-.3-.06-.42-.17-.23-.23-.24-.61,0-.84l3.15-3.18c.11-.11,.26-.18,.42-.18h6.39c.33,0,.6,.27,.6,.6s-.27,.6-.6,.6h-6.14l-2.98,3.01c-.12,.12-.27,.18-.42,.18Z"/>
      <path class="cls-1" d="M64.61,19.42c-1.11,0-2.05-.91-2.05-1.99,0-1.14,.92-2.06,2.05-2.06s2.05,.93,2.05,2.06c0,1.08-.94,1.99-2.05,1.99Zm0-2.86c-.48,0-.86,.38-.86,.87,0,.42,.4,.8,.86,.8s.86-.37,.86-.8c0-.49-.38-.87-.86-.87Z"/>
      <path class="cls-1" d="M60.4,21.3h-6.39c-.16,0-.32-.07-.43-.18l-3.15-3.27c-.23-.24-.22-.62,.02-.84,.24-.23,.61-.22,.84,.02l2.98,3.09h6.14c.33,0,.6,.27,.6,.6s-.27,.6-.6,.6Z"/>
      <path class="cls-1" d="M22.69,23.42c-.15,0-.31-.06-.42-.18l-4.6-4.64H8.85c-.33,0-.6-.27-.6-.6s.27-.6,.6-.6h9.06c.16,0,.31,.06,.42,.18l4.78,4.82c.23,.23,.23,.61,0,.84-.12,.12-.27,.17-.42,.17Z"/>
      <path class="cls-1" d="M7.48,20.07c-1.13,0-2.05-.93-2.05-2.07s.92-2.07,2.05-2.07c1.07,0,1.98,.95,1.98,2.07s-.9,2.07-1.98,2.07Zm0-2.94c-.48,0-.86,.39-.86,.88s.38,.88,.86,.88c.42,0,.78-.41,.78-.88s-.37-.88-.78-.88Z"/>
      <path class="cls-1" d="M69.14,34.79h-6.55c-.33,0-.6-.27-.6-.6s.27-.6,.6-.6h6.55c.33,0,.6,.27,.6,.6s-.27,.6-.6,.6Z"/>
      <path class="cls-1" d="M70.52,36.25c-1.07,0-1.97-.95-1.97-2.07s.9-1.98,1.97-1.98c1.13,0,2.05,.89,2.05,1.98s-.92,2.07-2.05,2.07Zm0-2.85c-.4,0-.78,.38-.78,.79,0,.51,.41,.87,.78,.87,.48,0,.86-.38,.86-.87,0-.43-.39-.79-.86-.79Z"/>
      <path class="cls-1" d="M28.11,13.54c-.15,0-.3-.06-.42-.17l-3.88-3.84c-.11-.11-.18-.26-.18-.42v-1.8c0-.33,.27-.6,.6-.6s.6,.27,.6,.6v1.55l3.7,3.67c.23,.23,.24,.61,0,.84-.12,.12-.27,.18-.42,.18Z"/>
      <path class="cls-1" d="M16.46,26.78c-.12,0-.23-.03-.34-.1l-4.34-2.98-1.55,.22c-.32,.05-.63-.18-.67-.51-.05-.33,.18-.63,.51-.67l1.78-.25c.15-.02,.3,.01,.42,.1l4.53,3.11c.27,.19,.34,.56,.15,.83-.12,.17-.3,.26-.49,.26Z"/>
      <path class="cls-1" d="M26.01,11.49c-.15,0-.3-.06-.42-.17-.23-.23-.24-.61,0-.84l2.98-3.01V3.7c0-.33,.27-.6,.6-.6s.6,.27,.6,.6V7.71c0,.16-.06,.31-.17,.42l-3.16,3.18c-.12,.12-.27,.18-.42,.18Z"/>
      <path class="cls-1" d="M7.47,29.39c-.29,0-.54-.21-.59-.5-.05-.32,.17-.63,.49-.68l3.72-.61,2.45-3.4c.19-.27,.57-.33,.83-.14,.27,.19,.33,.57,.14,.83l-2.59,3.6c-.09,.13-.23,.21-.39,.24l-3.96,.65s-.06,0-.1,0Z"/>
      <path class="cls-1" d="M24.23,7.89c-1.17,0-2.05-.85-2.05-1.99s.92-2.07,2.05-2.07,1.97,.91,1.97,2.07-.83,1.99-1.97,1.99Zm0-2.86c-.48,0-.86,.38-.86,.87s.35,.8,.86,.8c.48,0,.78-.31,.78-.8,0-.43-.27-.87-.78-.87Z"/>
      <path class="cls-1" d="M8.71,25.58h0c-.97,0-1.79-.68-1.98-1.65-.13-1.14,.6-2.12,1.69-2.34,.11-.03,.24-.04,.38-.04,.97,0,1.85,.76,1.95,1.7,.11,.53-.02,1.11-.35,1.56-.31,.42-.78,.69-1.32,.74-.09,.02-.23,.03-.36,.03Zm.08-2.84s-.09,0-.13,.01c-.56,.11-.8,.59-.76,.99,.08,.37,.4,.64,.81,.64h0c.06,0,.12,0,.19-.02,.26-.03,.43-.12,.54-.27,.13-.18,.18-.41,.13-.67-.05-.38-.42-.69-.77-.69Z"/>
      <path class="cls-1" d="M29.16,4.3c-1.17,0-2.05-.86-2.05-1.99S28.03,.24,29.16,.24s2.05,.93,2.05,2.07-.88,1.99-2.05,1.99Zm0-2.86c-.48,0-.86,.38-.86,.88,0,.52,.43,.8,.86,.8,.51,0,.86-.33,.86-.8s-.38-.88-.86-.88Z"/>
      <path class="cls-1" d="M6.07,31.05c-.96,0-1.8-.69-2.01-1.64-.13-1.24,.64-2.24,1.73-2.36,.08-.02,.21-.03,.34-.03,.95,0,1.8,.69,2.01,1.64,.13,1.14-.6,2.13-1.68,2.35-.14,.03-.27,.04-.39,.04Zm.06-2.84c-.05,0-.11,0-.16,.02-.56,.06-.78,.54-.74,.99,.09,.38,.53,.71,.99,.62,.47-.1,.79-.52,.74-.99-.08-.34-.44-.64-.83-.64Z"/>
      <path class="cls-1" d="M45.59,13.12c-.15,0-.3-.06-.42-.17-.23-.23-.24-.61,0-.84l3.55-3.58v-1.47c0-.33,.27-.6,.6-.6s.6,.27,.6,.6v1.72c0,.16-.06,.31-.17,.42l-3.72,3.76c-.12,.12-.27,.18-.42,.18Z"/>
      <path class="cls-1" d="M47.53,11.25c-.15,0-.31-.06-.42-.18l-3.16-3.19c-.11-.11-.17-.26-.17-.42V3.46c0-.33,.27-.6,.6-.6s.6,.27,.6,.6v3.76l2.99,3.01c.23,.23,.23,.61,0,.84-.12,.12-.27,.17-.42,.17Z"/>
      <path class="cls-1" d="M49.31,7.65c-1.07,0-1.97-.95-1.97-2.07,0-1.06,.92-1.98,1.97-1.98,1.11,0,2.05,.91,2.05,1.98,0,1.14-.92,2.07-2.05,2.07Zm0-2.86c-.4,0-.78,.39-.78,.79,0,.47,.36,.88,.78,.88,.47,0,.86-.39,.86-.88,0-.42-.4-.79-.86-.79Z"/>
      <path class="cls-1" d="M44.38,4.06c-1.12,0-1.97-.89-1.97-2.07,0-1.11,.87-1.98,1.97-1.98s2.05,.89,2.05,1.98-.92,2.07-2.05,2.07Zm0-2.86c-.51,0-.78,.41-.78,.79,0,.44,.27,.88,.78,.88,.48,0,.86-.39,.86-.88,0-.43-.39-.79-.86-.79Z"/>
    </g>
  </g>
</svg>