<?xml version="1.0" encoding="UTF-8"?>
<svg id="Layer_2" data-name="Layer 2" xmlns="http://www.w3.org/2000/svg" viewBox="0 0 68.96 65.12">
  <defs>
    <style>
      .cls-1 {
        fill: #fff;
      }
    </style>
  </defs>
  <g id="Layer_1-2" data-name="Layer 1">
    <g>
      <path class="cls-1" d="M.57,54.01h0c-.31,0-.57-.26-.56-.57L.31,.56c0-.31,.26-.56,.57-.56H12.17c.14,0,.27,.05,.38,.14l7.42,6.6,38.47-.54c.17-.02,.3,.06,.4,.16,.11,.11,.17,.25,.17,.4v10.95c0,.31-.25,.57-.57,.57s-.57-.25-.57-.57V7.35l-38.12,.54c-.15,.02-.28-.05-.38-.14L11.96,1.13H1.44l-.3,52.31c0,.31-.26,.56-.57,.56Z"/>
      <path class="cls-1" d="M53.9,18.29H17.11c-.31,0-.57-.25-.57-.57v-2.98c0-2.08,1.62-3.71,3.68-3.71h30.58c2.02,0,3.67,1.66,3.67,3.71v2.98c0,.31-.25,.57-.57,.57Zm-36.23-1.13H53.33v-2.42c0-1.42-1.14-2.57-2.54-2.57H20.22c-1.43,0-2.54,1.13-2.54,2.57v2.42Z"/>
      <path class="cls-1" d="M58.38,53.32H.87c-.18,0-.35-.08-.45-.23-.11-.14-.14-.33-.09-.5L10.41,17.5c.07-.24,.29-.41,.54-.41h57.44c.18,0,.35,.08,.45,.23,.11,.14,.14,.33,.09,.5l-10.02,35.09c-.07,.24-.29,.41-.54,.41ZM1.62,52.18H57.95l9.69-33.96H11.39L1.62,52.18Z"/>
      <path class="cls-1" d="M34.78,34.7c-3.45,0-6.26-2.8-6.26-6.24s2.81-6.23,6.26-6.23,6.18,2.8,6.18,6.23-2.77,6.24-6.18,6.24Zm0-11.34c-2.83,0-5.12,2.29-5.12,5.1s2.3,5.1,5.12,5.1,5.05-2.29,5.05-5.1-2.26-5.1-5.05-5.1Z"/>
      <path class="cls-1" d="M42.14,48.19h-15.02c-.31,0-.57-.25-.57-.57v-5.29c0-.31,.25-.57,.57-.57s.57,.25,.57,.57v4.72h13.89v-4.72c0-.31,.25-.57,.57-.57s.57,.25,.57,.57v5.29c0,.31-.25,.57-.57,.57Z"/>
      <path class="cls-1" d="M38.42,40.75h-7.51c-.31,0-.57-.25-.57-.57v-4.06c0-.31,.25-.57,.57-.57s.57,.25,.57,.57v3.49h6.38v-3.49c0-.31,.25-.57,.57-.57s.57,.25,.57,.57v4.06c0,.31-.25,.57-.57,.57Z"/>
      <path class="cls-1" d="M49.81,34.16c-2.49,0-4.51-2.07-4.51-4.62s2.03-4.63,4.51-4.63,4.59,2.08,4.59,4.63-2.06,4.62-4.59,4.62Zm0-8.12c-1.86,0-3.38,1.57-3.38,3.5s1.52,3.49,3.38,3.49,3.45-1.6,3.45-3.49-1.55-3.5-3.45-3.5Z"/>
      <path class="cls-1" d="M57.77,43.74h-11.53c-.31,0-.57-.25-.57-.57s.25-.57,.57-.57h10.97v-5.03l-4.85-1.95-2.32,2.14c-.22,.2-.57,.2-.78-.01l-2.16-2.12-5.2,2.09c-.29,.11-.62-.02-.74-.31-.12-.29,.02-.62,.31-.74l5.54-2.23c.21-.08,.45-.04,.61,.12l2.04,2.01,2.19-2.02c.16-.15,.39-.19,.59-.11l5.54,2.23c.21,.09,.36,.29,.36,.53v5.98c0,.31-.25,.57-.57,.57Z"/>
      <path class="cls-1" d="M51.17,43.74h-3.04c-.17,0-.34-.08-.44-.22-.11-.14-.15-.31-.11-.48l.84-3.45c.06-.25,.29-.43,.55-.43h1.59c.27,0,.51,.2,.56,.47l.61,3.45c.03,.16-.02,.33-.12,.46-.11,.13-.27,.2-.43,.2Zm-2.32-1.13h1.64l-.41-2.32h-.67l-.56,2.32Z"/>
      <path class="cls-1" d="M19.61,34.16c-2.49,0-4.51-2.07-4.51-4.62s2.03-4.63,4.51-4.63,4.59,2.08,4.59,4.63-2.06,4.62-4.59,4.62Zm0-8.12c-1.86,0-3.38,1.57-3.38,3.5s1.52,3.49,3.38,3.49,3.45-1.6,3.45-3.49-1.55-3.5-3.45-3.5Z"/>
      <path class="cls-1" d="M23.25,43.74H11.64c-.31,0-.57-.25-.57-.57v-5.98c0-.23,.14-.44,.36-.53l5.54-2.23c.2-.08,.43-.04,.59,.1l2.25,2.02,1.97-2c.16-.16,.4-.21,.61-.13l5.54,2.23c.29,.12,.43,.45,.31,.74-.12,.29-.45,.43-.74,.31l-5.19-2.08-2.09,2.11c-.21,.21-.56,.22-.78,.02l-2.39-2.15-4.86,1.95v5.03h11.04c.31,0,.57,.25,.57,.57s-.25,.57-.57,.57Z"/>
      <path class="cls-1" d="M21.37,43.74h-3.13c-.17,0-.33-.08-.44-.21-.11-.13-.15-.3-.12-.47l.68-3.45c.05-.27,.29-.46,.56-.46h1.6c.26,0,.49,.18,.55,.43l.8,3.32c.04,.08,.06,.17,.06,.26,0,.31-.25,.57-.57,.57Zm-2.44-1.13h1.7l-.56-2.32h-.69l-.46,2.32Z"/>
      <path class="cls-1" d="M36.68,65.12h-14.11c-.31,0-.57-.25-.57-.57v-4.29c0-.31,.25-.57,.57-.57h14.11c.31,0,.57,.25,.57,.57v4.29c0,.31-.25,.57-.57,.57Zm-13.54-1.13h12.98v-3.16h-12.98v3.16Z"/>
      <path class="cls-1" d="M49.5,62.97h-12.82c-.31,0-.57-.25-.57-.57s.25-.57,.57-.57h12.82c.31,0,.57,.25,.57,.57s-.25,.57-.57,.57Zm-26.93,0H9.75c-.31,0-.57-.25-.57-.57s.25-.57,.57-.57h12.82c.31,0,.57,.25,.57,.57s-.25,.57-.57,.57Z"/>
      <path class="cls-1" d="M29.62,61.06c-.31,0-.57-.25-.57-.57v-7.74c0-.31,.25-.57,.57-.57s.57,.25,.57,.57v7.74c0,.31-.25,.57-.57,.57Z"/>
      <path class="cls-1" d="M46.01,48.19H23.25c-.31,0-.57-.25-.57-.57v-8.43c0-.23,.14-.44,.36-.53l7.82-3.07c.21-.08,.44-.03,.6,.12l3.04,2.93,3.32-2.95c.16-.14,.38-.18,.58-.1l7.81,3.07c.22,.09,.36,.29,.36,.53v8.43c0,.31-.25,.57-.57,.57Zm-22.19-1.13h21.63v-7.47l-7.13-2.8-3.46,3.07c-.22,.2-.56,.19-.77-.02l-3.15-3.04-7.12,2.79v7.47Z"/>
      <path class="cls-1" d="M35.77,43.36h-2.28c-.31,0-.57-.25-.57-.57v-2.61c0-.31,.25-.57,.57-.57h2.28c.31,0,.57,.25,.57,.57v2.61c0,.31-.25,.57-.57,.57Zm-1.71-1.13h1.14v-1.47h-1.14v1.47Z"/>
      <path class="cls-1" d="M36.68,48.19h-4.32c-.17,0-.34-.08-.44-.22-.11-.14-.15-.31-.11-.48l1.14-4.83c.06-.26,.29-.44,.55-.44h2.28c.27,0,.51,.19,.56,.46l.91,4.83c.03,.16-.01,.34-.12,.47-.11,.13-.27,.21-.44,.21Zm-3.61-1.13h2.93l-.7-3.7h-1.36l-.87,3.7Z"/>
    </g>
  </g>
</svg>