<?xml version="1.0" encoding="UTF-8"?>
<svg id="Layer_2" data-name="Layer 2" xmlns="http://www.w3.org/2000/svg" viewBox="0 0 67.15 72.62">
  <defs>
    <style>
      .cls-1 {
        fill: #fff;
      }
    </style>
  </defs>
  <g id="Layer_1-2" data-name="Layer 1">
    <g>
      <path class="cls-1" d="M49.36,26.42H4.48c-.56,0-.99-.43-.99-.99V2.2c0-1.23,.92-2.2,2.11-2.2H47.85c1.18,0,2.11,.97,2.11,2.2V25.82c0,.33-.27,.6-.6,.6Zm-44.67-1.19H48.76V2.2c0-.58-.39-1.01-.91-1.01H5.6c-.52,0-.91,.43-.91,1.01V25.22Z"/>
      <path class="cls-1" d="M49.52,33.14H3.92c-2.16,0-3.92-1.78-3.92-3.96v-3.36c0-.33,.27-.6,.6-.6H52.85c.33,0,.6,.27,.6,.6v3.36c0,2.18-1.76,3.96-3.93,3.96ZM1.19,26.42v2.77c0,1.5,1.25,2.77,2.73,2.77H49.52c1.48,0,2.73-1.27,2.73-2.77v-2.77H1.19Z"/>
      <path class="cls-1" d="M45.63,26.42H7.81c-.33,0-.6-.27-.6-.6V4.52c0-.33,.27-.6,.6-.6H45.63c.33,0,.6,.27,.6,.6V25.82c0,.33-.27,.6-.6,.6Zm-37.22-1.19H45.03V5.12H8.41V25.22Z"/>
      <path class="cls-1" d="M31.91,30.02h-10.39c-.33,0-.6-.27-.6-.6v-3.6c0-.33,.27-.6,.6-.6h10.39c.33,0,.6,.27,.6,.6v3.6c0,.33-.27,.6-.6,.6Zm-9.79-1.19h9.19v-2.41h-9.19v2.41Z"/>
      <path class="cls-1" d="M53.56,66.14c-.33,0-.6-.27-.6-.6v-2.56c0-.33,.27-.6,.6-.6s.6,.27,.6,.6v2.56c0,.33-.27,.6-.6,.6Zm0-9.05c-.33,0-.6-.27-.6-.6v-2.49c0-.33,.27-.6,.6-.6s.6,.27,.6,.6v2.49c0,.33-.27,.6-.6,.6Zm0-9.05c-.33,0-.6-.27-.6-.6v-5.73H26.21c-.33,0-.6-.27-.6-.6v-8.56c0-.33,.27-.6,.6-.6s.6,.27,.6,.6v7.97h26.76c.33,0,.6,.27,.6,.6v6.33c0,.33-.27,.6-.6,.6Z"/>
      <path class="cls-1" d="M63.78,69.42h-7.05c-.33,0-.6-.27-.6-.6s.27-.6,.6-.6h7.05c.33,0,.6,.27,.6,.6s-.27,.6-.6,.6Zm-13.39,0h-7.05c-.33,0-.6-.27-.6-.6s.27-.6,.6-.6h7.05c.33,0,.6,.27,.6,.6s-.27,.6-.6,.6Z"/>
      <path class="cls-1" d="M53.56,72.62c-2.08,0-3.77-1.71-3.77-3.8s1.69-3.88,3.77-3.88,3.77,1.74,3.77,3.88-1.69,3.8-3.77,3.8Zm0-6.49c-1.42,0-2.58,1.2-2.58,2.68s1.16,2.61,2.58,2.61,2.57-1.17,2.57-2.61-1.15-2.68-2.57-2.68Z"/>
      <path class="cls-1" d="M65.85,54.6h-24.58c-.72,0-1.31-.59-1.31-1.32v-5.13c0-.72,.59-1.31,1.31-1.31h24.58c.72,0,1.3,.59,1.3,1.31v5.13c0,.72-.58,1.32-1.3,1.32Zm-24.58-6.56c-.06,0-.12,.05-.12,.12v5.13c0,.07,.05,.12,.12,.12h24.58c.06,0,.11-.05,.11-.12v-5.13c0-.07-.05-.12-.11-.12h-24.58Z"/>
      <path class="cls-1" d="M65.85,63.58h-24.58c-.72,0-1.31-.59-1.31-1.32v-5.12c0-.67,.6-1.24,1.31-1.24h24.58c.71,0,1.3,.57,1.3,1.24v5.12c0,.73-.58,1.32-1.3,1.32Zm-24.58-6.49c-.06,0-.11,.05-.12,.07v5.1c0,.07,.05,.13,.12,.13h24.58c.06,0,.11-.06,.11-.13v-5.12s-.05-.05-.11-.05h-24.58Z"/>
      <path class="cls-1" d="M44.52,51.32h-.95c-.33,0-.6-.27-.6-.6s.27-.6,.6-.6h.95c.33,0,.6,.27,.6,.6s-.27,.6-.6,.6Z"/>
      <path class="cls-1" d="M46.18,51.32h-.95c-.33,0-.6-.27-.6-.6s.27-.6,.6-.6h.95c.33,0,.6,.27,.6,.6s-.27,.6-.6,.6Z"/>
      <path class="cls-1" d="M47.77,51.32h-.95c-.33,0-.6-.27-.6-.6s.27-.6,.6-.6h.95c.33,0,.6,.27,.6,.6s-.27,.6-.6,.6Z"/>
      <path class="cls-1" d="M44.52,60.29h-.95c-.33,0-.6-.27-.6-.6s.27-.6,.6-.6h.95c.33,0,.6,.27,.6,.6s-.27,.6-.6,.6Z"/>
      <path class="cls-1" d="M46.18,60.29h-.95c-.33,0-.6-.27-.6-.6s.27-.6,.6-.6h.95c.33,0,.6,.27,.6,.6s-.27,.6-.6,.6Z"/>
      <path class="cls-1" d="M47.77,60.29h-.95c-.33,0-.6-.27-.6-.6s.27-.6,.6-.6h.95c.33,0,.6,.27,.6,.6s-.27,.6-.6,.6Z"/>
      <path class="cls-1" d="M12.57,68.21c-5.17,0-10.66-1.56-10.66-4.44,0-.59,.28-1.48,1.62-2.34,.2-.13,.46-.13,.66,0,1.64,1.11,4.93,1.82,8.39,1.82s6.65-.7,8.4-1.83c.2-.13,.45-.13,.65,0,1.34,.86,1.62,1.75,1.62,2.34,0,2.88-5.5,4.44-10.67,4.44Zm-8.7-5.57c-.5,.38-.77,.77-.77,1.13,0,1.54,3.89,3.25,9.47,3.25s9.47-1.71,9.47-3.25c0-.35-.27-.75-.77-1.13-1.98,1.12-5.26,1.81-8.7,1.81s-6.78-.69-8.7-1.8Z"/>
      <path class="cls-1" d="M12.57,64.45c-5.17,0-10.66-1.53-10.66-4.36,0-.91,.54-1.73,1.62-2.42,.21-.13,.47-.13,.67,.02,1.55,1.12,4.75,1.81,8.37,1.81s6.74-.68,8.38-1.82c.2-.14,.46-.14,.66,0,1.07,.69,1.62,1.51,1.62,2.42,0,2.83-5.5,4.36-10.67,4.36Zm-8.71-5.56c-.5,.39-.76,.79-.76,1.2,0,1.49,4.05,3.17,9.47,3.17s9.47-1.67,9.47-3.17c0-.41-.26-.81-.76-1.2-1.9,1.13-5.11,1.8-8.71,1.8s-6.87-.67-8.71-1.8Z"/>
      <path class="cls-1" d="M12.57,60.69c-5.17,0-10.66-1.53-10.66-4.36,0-.91,.55-1.74,1.55-2.35,.19-.12,.44-.11,.63,0,1.76,1.13,5,1.83,8.48,1.83s6.74-.71,8.39-1.82c.19-.12,.42-.13,.62-.03,1.07,.59,1.66,1.43,1.66,2.36,0,2.83-5.5,4.36-10.67,4.36Zm-8.78-5.5c-.33,.25-.69,.64-.69,1.13,0,1.5,4.05,3.17,9.47,3.17s9.47-1.67,9.47-3.17c0-.49-.36-.87-.75-1.14-1.92,1.13-5.21,1.82-8.73,1.82s-6.78-.67-8.78-1.81Z"/>
      <path class="cls-1" d="M12.57,57c-5.17,0-10.66-1.56-10.66-4.44s5.49-4.36,10.66-4.36,10.67,1.53,10.67,4.36-5.5,4.44-10.67,4.44Zm0-7.61c-5.42,0-9.47,1.67-9.47,3.16s3.89,3.25,9.47,3.25,9.47-1.71,9.47-3.25-4.05-3.16-9.47-3.16Z"/>
      <rect class="cls-1" x="8.69" y="51.93" width="1.34" height="1.36"/>
      <rect class="cls-1" x="11.38" y="51.93" width="1.27" height="1.36"/>
      <rect class="cls-1" x="14" y="51.93" width="1.35" height="1.36"/>
      <path class="cls-1" d="M12.57,49.48c-.33,0-.6-.27-.6-.6v-10.73c0-.33,.27-.6,.6-.6h9.32v-5.01c0-.33,.27-.6,.6-.6s.6,.27,.6,.6v5.61c0,.33-.27,.6-.6,.6H13.16v10.13c0,.33-.27,.6-.6,.6Z"/>
      <path class="cls-1" d="M28.19,9.36H13.36c-.33,0-.6-.27-.6-.6s.27-.6,.6-.6h14.83c.33,0,.6,.27,.6,.6s-.27,.6-.6,.6Z"/>
      <path class="cls-1" d="M35.17,9.36h-4.36c-.33,0-.6-.27-.6-.6s.27-.6,.6-.6h4.36c.33,0,.6,.27,.6,.6s-.27,.6-.6,.6Z"/>
      <path class="cls-1" d="M28.19,12.57H13.36c-.33,0-.6-.27-.6-.6s.27-.6,.6-.6h14.83c.33,0,.6,.27,.6,.6s-.27,.6-.6,.6Z"/>
      <path class="cls-1" d="M35.17,12.57h-4.36c-.33,0-.6-.27-.6-.6s.27-.6,.6-.6h4.36c.33,0,.6,.27,.6,.6s-.27,.6-.6,.6Z"/>
      <path class="cls-1" d="M28.19,15.77H13.36c-.33,0-.6-.27-.6-.6s.27-.6,.6-.6h14.83c.33,0,.6,.27,.6,.6s-.27,.6-.6,.6Z"/>
      <path class="cls-1" d="M35.17,15.77h-4.36c-.33,0-.6-.27-.6-.6s.27-.6,.6-.6h4.36c.33,0,.6,.27,.6,.6s-.27,.6-.6,.6Z"/>
      <path class="cls-1" d="M28.19,19.05H13.36c-.33,0-.6-.27-.6-.6s.27-.6,.6-.6h14.83c.33,0,.6,.27,.6,.6s-.27,.6-.6,.6Z"/>
      <path class="cls-1" d="M35.17,19.05h-4.36c-.33,0-.6-.27-.6-.6s.27-.6,.6-.6h4.36c.33,0,.6,.27,.6,.6s-.27,.6-.6,.6Z"/>
    </g>
  </g>
</svg>