<?xml version="1.0" encoding="UTF-8"?>
<svg id="Layer_2" data-name="Layer 2" xmlns="http://www.w3.org/2000/svg" viewBox="0 0 58.59 64.87">
  <defs>
    <style>
      .cls-1 {
        fill: #fff;
      }
    </style>
  </defs>
  <g id="Layer_1-2" data-name="Layer 1">
    <g>
      <path class="cls-1" d="M29.22,59.01C13.11,59.01,0,45.78,0,29.51S13.11,0,29.22,0s29.22,13.24,29.22,29.51c0,4.57-1.01,9.01-2.92,12.86-.08,.16-.24,.27-.42,.29-.19,.02-.36-.06-.47-.2-2.48-3.11-6.14-4.89-10.05-4.89-7.18,0-13.01,5.87-13.01,13.08,0,2.62,.75,5.12,2.16,7.23,.1,.15,.12,.34,.05,.51-.07,.17-.22,.28-.4,.31-1.25,.21-2.57,.31-4.15,.31ZM29.22,1.07C13.7,1.07,1.07,13.82,1.07,29.51s12.63,28.44,28.15,28.44c1.19,0,2.22-.06,3.18-.18-1.25-2.13-1.9-4.58-1.9-7.12,0-7.8,6.32-14.15,14.08-14.15,3.96,0,7.68,1.69,10.34,4.65,1.61-3.53,2.46-7.54,2.46-11.65C57.37,13.82,44.74,1.07,29.22,1.07Z"/>
      <path class="cls-1" d="M29.22,59.01c-5.05,0-9.74-4.8-12.55-12.83-.05-.14-.04-.29,.03-.42,.07-.13,.19-.23,.33-.27,.88-.25,1.53-1,1.65-1.92,.12-.75-.07-1.48-.54-2.03-.47-.55-1.13-.85-1.87-.85-.2,0-.37,0-.51,.05-.14,.05-.3,.03-.43-.05-.13-.08-.22-.2-.25-.35-.71-3.47-1.07-7.12-1.07-10.83s.38-7.52,1.14-11.43c.03-.14,.11-.27,.23-.35,.12-.08,.27-.1,.41-.07,.24,.06,.42,.06,.63,.06,1.23,0,2.22-.84,2.41-2.05,0,0,0-.01,0-.02h0s.02-.09,.04-.13c.02-.05,.02-.12,.02-.23,0-1.07-.69-2.05-1.67-2.39-.14-.05-.25-.14-.31-.27-.06-.13-.07-.28-.02-.41C19.73,4.45,24.22,0,29.22,0c5.27,0,10.05,5.03,12.78,13.45,.19,.44,.34,.98,.47,1.46l.06,.23s0,0,0,0c1.24,4.32,1.9,9.28,1.9,14.36,0,2.83-.18,5.42-.53,7.69-.04,.24-.24,.43-.48,.45-6.65,.59-11.86,6.31-11.86,13.01,0,2.4,.59,4.58,1.8,6.65,.07,.13,.09,.28,.05,.42-.04,.14-.14,.26-.27,.33-1.29,.65-2.57,.97-3.93,.97Zm-11.37-12.69c2.67,7.29,6.9,11.63,11.37,11.63,1.01,0,1.98-.2,2.94-.62-1.12-2.09-1.67-4.28-1.67-6.68,0-7.11,5.42-13.19,12.41-14.03,.3-2.12,.46-4.51,.46-7.12,0-4.8-.6-9.49-1.73-13.61-4.06,.75-8.18,1.13-12.25,1.13h-.02c-3.05,0-6.15-.21-9.23-.64-.13-.02-.26-.04-.38-.05-.45,1.44-1.79,2.44-3.34,2.44-.1,0-.21,0-.32,0-.68,3.67-1.02,7.27-1.02,10.73s.32,6.87,.95,10.12c.09,0,.17,0,.25,0,1.04,0,2.02,.45,2.68,1.23,.67,.79,.96,1.84,.78,2.88-.15,1.13-.87,2.1-1.88,2.58ZM29.37,15.97c3.98,0,8-.37,11.98-1.1-.1-.36-.21-.72-.35-1.05-2.56-7.89-7.06-12.76-11.78-12.76-4.36,0-8.51,4.12-11.15,11.04,1.13,.61,1.89,1.84,1.89,3.18h0c3.14,.46,6.3,.68,9.41,.68h0Z"/>
      <path class="cls-1" d="M57.9,30.04H.53c-.29,0-.53-.24-.53-.53s.24-.53,.53-.53H57.9c.29,0,.53,.24,.53,.53s-.24,.53-.53,.53Z"/>
      <path class="cls-1" d="M29.22,59.01c-.29,0-.53-.24-.53-.53V.53c0-.29,.24-.53,.53-.53s.53,.24,.53,.53V58.48c0,.29-.24,.53-.53,.53Z"/>
      <path class="cls-1" d="M16.42,18.78c-1.94,0-3.47-1.54-3.47-3.5v-.19c-2.68-.67-4.97-1.32-7.16-2.04-.28-.09-.43-.39-.34-.67,.09-.28,.39-.43,.67-.34,2.14,.7,4.38,1.34,7,2,.53-1.38,1.84-2.33,3.3-2.33,1.95,0,3.55,1.6,3.55,3.57h0c10.73,1.47,21.61,.38,32.35-3.24,.28-.1,.58,.06,.68,.33,.09,.28-.06,.58-.33,.68-10.91,3.68-21.98,4.78-32.89,3.28-.45,1.44-1.79,2.44-3.35,2.44Zm-2.4-4.04v.54c0,1.39,1.03,2.43,2.4,2.43,1.23,0,2.22-.85,2.41-2.05,0,0,0,0,0-.01,0-.05,.02-.09,.04-.14,.02-.05,.02-.12,.02-.23,0-1.38-1.11-2.51-2.48-2.51-1.12,0-2.13,.82-2.4,1.96Z"/>
      <path class="cls-1" d="M5.95,46.39c-.22,0-.43-.14-.5-.36-.09-.28,.06-.58,.34-.67,2.16-.73,4.45-1.39,7.42-2.14,.29-.07,.57,.1,.65,.38,.07,.28-.1,.57-.38,.65-2.94,.75-5.21,1.4-7.34,2.12-.06,.02-.11,.03-.17,.03Zm13.25-3.2c-.26,0-.48-.19-.53-.45-.05-.29,.15-.56,.44-.61,3.28-.51,6.6-.76,10.17-.76,.29,0,.53,.24,.53,.53s-.24,.53-.53,.53c-3.51,0-6.79,.24-10.01,.75-.03,0-.06,0-.08,0Z"/>
      <path class="cls-1" d="M16.27,46.69c-1.95,0-3.55-1.61-3.55-3.58s1.62-3.49,3.55-3.49c1.04,0,2.02,.45,2.68,1.23,.67,.79,.96,1.84,.78,2.88-.27,1.71-1.72,2.96-3.46,2.96Zm0-6c-1.34,0-2.48,1.11-2.48,2.43,0,1.39,1.11,2.51,2.48,2.51,1.23,0,2.22-.85,2.41-2.06,.12-.73-.08-1.47-.55-2.02-.47-.55-1.13-.85-1.87-.85Z"/>
      <path class="cls-1" d="M44.58,64.87c-7.76,0-14.08-6.38-14.08-14.22s6.32-14.15,14.08-14.15,14.01,6.35,14.01,14.15-6.29,14.22-14.01,14.22Zm0-27.3c-7.18,0-13.01,5.87-13.01,13.08s5.84,13.15,13.01,13.15,12.94-5.9,12.94-13.15-5.81-13.08-12.94-13.08Z"/>
      <g>
        <path class="cls-1" d="M42.42,50.12h-2.45c-1.18,0-2.14-.96-2.14-2.14s.96-2.16,2.14-2.16c.14,0,.27,.01,.39,.04,.15-.88,.82-1.57,1.7-1.75,.09-1.44,1.3-2.6,2.75-2.6s2.71,1.22,2.74,2.73c.61,.29,1.09,.81,1.35,1.44,.88,.31,1.39,1.04,1.39,2.01,0,1.09-.96,2.41-2.14,2.41h-2.01c-.08,0-.15-.07-.15-.15s.07-.15,.15-.15h2.01c.99,0,1.84-1.16,1.84-2.11,0-.86-.45-1.49-1.25-1.75-.04-.01-.08-.05-.1-.09-.23-.62-.71-1.12-1.31-1.38-.06-.02-.09-.08-.09-.14v-.04c0-1.37-1.09-2.48-2.43-2.48s-2.44,1.09-2.45,2.42c0,.07-.06,.14-.13,.15-.86,.13-1.52,.82-1.59,1.68,0,.05-.03,.09-.07,.11-.04,.03-.09,.03-.13,.02-.14-.05-.29-.07-.47-.07-1.01,0-1.84,.83-1.84,1.86s.82,1.84,1.84,1.84h2.45c.08,0,.15,.07,.15,.15s-.07,.15-.15,.15Z"/>
        <path class="cls-1" d="M43.44,52.25c-.08,0-.15-.07-.15-.15v-3.55c0-.08,.07-.15,.15-.15h.41l-.91-.74-.91,.74h.4c.08,0,.15,.07,.15,.15v2.63c0,.08-.07,.15-.15,.15s-.15-.07-.15-.15v-2.48h-.68c-.06,0-.12-.04-.14-.1-.02-.06,0-.13,.05-.17l1.33-1.09c.06-.05,.14-.05,.19,0l1.33,1.09s.07,.11,.05,.17c-.02,.06-.08,.1-.14,.1h-.68v3.4c0,.08-.07,.15-.15,.15Z"/>
        <path class="cls-1" d="M45.6,52.25s-.07-.01-.1-.03l-1.33-1.09s-.07-.11-.05-.17c.02-.06,.08-.1,.14-.1h.68v-2.48c0-.08,.07-.15,.15-.15s.15,.07,.15,.15v2.63c0,.08-.07,.15-.15,.15h-.4l.91,.74,.91-.74h-.4c-.08,0-.15-.07-.15-.15v-3.55c0-.08,.07-.15,.15-.15s.15,.07,.15,.15v3.4h.68c.06,0,.12,.04,.14,.1,.02,.06,0,.13-.05,.17l-1.33,1.09s-.06,.03-.1,.03Z"/>
        <path class="cls-1" d="M51.94,56.44h-5.6c-.18,0-.31-.13-.31-.31v-1.17c0-.17,.13-.31,.31-.31h5.6c.17,0,.31,.14,.31,.31v1.17c0,.18-.13,.31-.31,.31Zm-5.6-1.48v1.17s5.6,0,5.6,0c0,0,.01,0,.01,0v-1.17s-5.61,0-5.61,0Z"/>
        <path class="cls-1" d="M47.32,55.74h-.46c-.08,0-.15-.07-.15-.15s.07-.15,.15-.15h.46c.08,0,.15,.07,.15,.15s-.07,.15-.15,.15Z"/>
        <path class="cls-1" d="M48.07,55.74h-.46c-.08,0-.15-.07-.15-.15s.07-.15,.15-.15h.46c.08,0,.15,.07,.15,.15s-.07,.15-.15,.15Z"/>
        <path class="cls-1" d="M48.83,55.74h-.44c-.08,0-.15-.07-.15-.15s.07-.15,.15-.15h.44c.08,0,.15,.07,.15,.15s-.07,.15-.15,.15Z"/>
        <path class="cls-1" d="M47.55,60.05h-5.6c-.19,0-.33-.13-.33-.31v-1.17c0-.17,.15-.31,.33-.31h5.6c.17,0,.31,.14,.31,.31v1.17c0,.18-.13,.31-.31,.31Zm-5.62-.31s0,0,.02,0h5.6s.01,0,.01,0v-1.17s-5.61,0-5.61,0c-.01,0-.02,0-.02,.01v1.16Z"/>
        <path class="cls-1" d="M42.92,59.35h-.44c-.08,0-.15-.07-.15-.15s.07-.15,.15-.15h.44c.08,0,.15,.07,.15,.15s-.07,.15-.15,.15Z"/>
        <path class="cls-1" d="M43.69,59.35h-.46c-.08,0-.15-.07-.15-.15s.07-.15,.15-.15h.46c.08,0,.15,.07,.15,.15s-.07,.15-.15,.15Z"/>
        <path class="cls-1" d="M44.44,59.35h-.44c-.08,0-.15-.07-.15-.15s.07-.15,.15-.15h.44c.08,0,.15,.07,.15,.15s-.07,.15-.15,.15Z"/>
        <path class="cls-1" d="M42.03,56.44h-5.6c-.18,0-.31-.13-.31-.31v-1.17c0-.17,.13-.31,.31-.31h5.6c.18,0,.33,.14,.33,.31v1.17c0,.18-.14,.31-.33,.31Zm-5.6-1.48v1.17s5.6,0,5.6,0c.01,0,.02,0,.02,0v-1.17s-.01,0-.02,0h-5.6Z"/>
        <path class="cls-1" d="M37.42,55.74h-.46c-.08,0-.15-.07-.15-.15s.07-.15,.15-.15h.46c.08,0,.15,.07,.15,.15s-.07,.15-.15,.15Z"/>
        <path class="cls-1" d="M38.17,55.74h-.44c-.08,0-.15-.07-.15-.15s.07-.15,.15-.15h.44c.08,0,.15,.07,.15,.15s-.07,.15-.15,.15Z"/>
        <path class="cls-1" d="M38.92,55.74h-.45c-.08,0-.15-.07-.15-.15s.07-.15,.15-.15h.45c.08,0,.15,.07,.15,.15s-.07,.15-.15,.15Z"/>
        <path class="cls-1" d="M49.14,54.96c-.08,0-.15-.07-.15-.15v-1.84h-1.3c-.08,0-.15-.07-.15-.15v-2.87c0-.08,.07-.15,.15-.15s.15,.07,.15,.15v2.72h1.3c.08,0,.15,.07,.15,.15v1.99c0,.08-.07,.15-.15,.15Z"/>
        <path class="cls-1" d="M39.62,54.96c-.08,0-.15-.07-.15-.15v-1.99c0-.08,.07-.15,.15-.15h1.3v-2.72c0-.08,.07-.15,.15-.15s.15,.07,.15,.15v2.87c0,.08-.07,.15-.15,.15h-1.3v1.84c0,.08-.07,.15-.15,.15Z"/>
        <path class="cls-1" d="M50.06,59.33h-2.36c-.08,0-.15-.07-.15-.15s.07-.15,.15-.15h2.2v-2.73c0-.08,.07-.15,.15-.15s.15,.07,.15,.15v2.89c0,.08-.07,.15-.15,.15Z"/>
        <path class="cls-1" d="M41.76,59.33h-2.34c-.08,0-.15-.07-.15-.15v-2.89c0-.08,.07-.15,.15-.15s.15,.07,.15,.15v2.73h2.18c.08,0,.15,.07,.15,.15s-.07,.15-.15,.15Z"/>
      </g>
    </g>
  </g>
</svg>