<?xml version="1.0" encoding="UTF-8"?>
<svg id="Layer_2" data-name="Layer 2" xmlns="http://www.w3.org/2000/svg" viewBox="0 0 60.1 72.57">
  <defs>
    <style>
      .cls-1 {
        fill: #fff;
      }
    </style>
  </defs>
  <g id="Layer_1-2" data-name="Layer 1">
    <g>
      <path class="cls-1" d="M56.21,58.47H3.81c-2.1,0-3.81-1.76-3.81-3.93V16.44c0-2.16,1.71-3.92,3.81-3.92H14.16c.33,0,.6,.27,.6,.6s-.27,.6-.6,.6H3.81c-1.44,0-2.62,1.23-2.62,2.73V54.54c0,1.51,1.17,2.74,2.62,2.74H56.21c1.46,0,2.7-1.25,2.7-2.74V16.44c0-1.51-1.21-2.73-2.7-2.73h-10.2c-.33,0-.6-.27-.6-.6s.27-.6,.6-.6h10.2c2.15,0,3.89,1.76,3.89,3.92V54.54c0,2.17-1.75,3.93-3.89,3.93Z"/>
      <path class="cls-1" d="M56.75,51.57H3.34c-1.84,0-3.34-1.54-3.34-3.44,0-.33,.27-.6,.6-.6s.6,.27,.6,.6c0,1.24,.96,2.25,2.15,2.25H56.75c1.19,0,2.15-1.01,2.15-2.25,0-.33,.27-.6,.6-.6s.6,.27,.6,.6c0,1.9-1.5,3.44-3.34,3.44Z"/>
      <path class="cls-1" d="M39.52,69.16s-.01,0-.02,0H20.52c-.19,0-.36-.09-.47-.23-.11-.15-.15-.34-.1-.52l2.83-10.69c.07-.26,.31-.44,.58-.44h13.41c.27,0,.51,.18,.58,.45l2.71,10.56c.05,.08,.07,.18,.07,.28,0,.33-.27,.6-.6,.6Zm-18.23-1.19h17.44l-2.44-9.5h-12.49l-2.51,9.5Z"/>
      <path class="cls-1" d="M30.01,56.25c-.98,0-1.78-.84-1.78-1.87s.83-1.87,1.78-1.87c1,0,1.85,.85,1.85,1.87s-.81,1.87-1.85,1.87Zm0-2.54c-.28,0-.58,.35-.58,.67,0,.4,.31,.67,.58,.67,.37,0,.65-.29,.65-.67,0-.31-.29-.67-.65-.67Z"/>
      <path class="cls-1" d="M45.61,72.57H14.47c-.33,0-.6-.27-.6-.6v-3.41c0-.33,.27-.6,.6-.6h31.14c.33,0,.6,.27,.6,.6v3.41c0,.33-.27,.6-.6,.6Zm-30.54-1.19h29.95v-2.22H15.07v2.22Z"/>
      <path class="cls-1" d="M30.01,34.15c-9.32,0-16.91-7.66-16.91-17.08S20.68,0,30.01,0s16.91,7.66,16.91,17.07-7.59,17.08-16.91,17.08ZM30.01,1.19c-8.67,0-15.72,7.12-15.72,15.88s7.05,15.89,15.72,15.89,15.71-7.13,15.71-15.89S38.67,1.19,30.01,1.19Z"/>
      <path class="cls-1" d="M30.01,34.15c-3,0-5.76-2.78-7.39-7.45-.1-.29,.04-.62,.32-.74,.25-.11,.7-.39,.83-1.01,.04-.29-.05-.62-.27-.86-.22-.25-.53-.39-.88-.39-.06,.04-.21,.09-.39,.09-.28,0-.53-.2-.58-.47-.38-1.82-.56-3.85-.56-6.22,0-2.2,.22-4.4,.64-6.53,.06-.28,.3-.48,.58-.48h.39c.57,0,1.01-.35,1.13-.88v-.18c0-.53-.29-.94-.77-1.1-.15-.05-.28-.16-.35-.31-.07-.15-.08-.32-.02-.47,1.72-4.52,4.39-7.12,7.31-7.12,3.15,0,5.9,2.86,7.54,7.85,.15,.29,.24,.64,.32,.96,0,.02,0,.03,.01,.05,.73,2.46,1.11,5.3,1.11,8.21,0,2.08-.22,4.17-.64,6.22-.05,.22-.21,.39-.42,.45-.16,.04-.33,.02-.47-.06-.03,0-.06,0-.08,0-.59,0-1.05,.51-1.05,1.15,0,.51,.28,.91,.71,1,.16,.04,.31,.14,.39,.29,.08,.15,.1,.32,.04,.48-1.64,4.79-4.36,7.54-7.47,7.54Zm-6.1-7.38c1.46,3.88,3.72,6.19,6.1,6.19s4.7-2.31,6.15-6.2c-.63-.38-1.02-1.09-1.02-1.92,0-1.29,.94-2.3,2.16-2.34,.34-1.79,.51-3.62,.51-5.42,0-2.61-.32-5.15-.93-7.4-2.22,.38-4.45,.57-6.64,.58h-.07s-.01,0-.02,0h0c-1.75,0-3.52-.12-5.29-.36-.35,.8-1.11,1.32-2.04,1.36-.35,1.91-.52,3.86-.52,5.82s.14,3.83,.43,5.42c.66,.02,1.27,.31,1.7,.81,.44,.51,.63,1.19,.53,1.86-.15,.68-.51,1.23-1.04,1.61Zm6.22-17.71s0,0,.01,0c2.11,0,4.26-.18,6.4-.54-.03-.07-.06-.14-.09-.21-1.49-4.48-3.88-7.11-6.44-7.11-2.3,0-4.46,2.12-5.99,5.85,.56,.37,.93,.98,1,1.67h0c1.73,.23,3.42,.34,5.07,.35h.04Z"/>
      <path class="cls-1" d="M46.32,17.67H13.69c-.33,0-.6-.27-.6-.6s.27-.6,.6-.6H46.32c.33,0,.6,.27,.6,.6s-.27,.6-.6,.6Z"/>
      <path class="cls-1" d="M30.01,34.15c-.33,0-.6-.27-.6-.6V.6c0-.33,.27-.6,.6-.6s.6,.27,.6,.6V33.55c0,.33-.27,.6-.6,.6Z"/>
      <path class="cls-1" d="M22.71,11.25c-1.21,0-2.2-.97-2.24-2.18-1.25-.29-2.54-.66-3.83-1.1-.31-.1-.48-.44-.38-.75,.1-.31,.44-.48,.75-.38,1.24,.42,2.48,.77,3.68,1.06,.4-.73,1.19-1.25,2.02-1.25,1.19,0,2.17,.9,2.3,2.06,5.94,.82,12.01,.19,18.05-1.87,.31-.11,.65,.06,.76,.37,.11,.31-.06,.65-.37,.76-6.22,2.12-12.47,2.77-18.59,1.92-.37,.83-1.17,1.36-2.14,1.36Zm-1.05-2.58v.32c0,.66,.55,1.07,1.05,1.07,.57,0,1.01-.35,1.13-.88v-.18c0-.62-.52-1.15-1.13-1.15-.5,0-.93,.42-1.05,.82Z"/>
      <path class="cls-1" d="M16.83,27.02c-.25,0-.47-.15-.56-.4-.11-.31,.05-.65,.36-.76,1.26-.45,2.74-.95,4.23-1.29,.32-.07,.64,.13,.71,.45,.07,.32-.13,.64-.45,.71-1.42,.32-2.87,.81-4.09,1.25-.07,.02-.13,.03-.2,.03Zm26.43,0c-.07,0-.15-.01-.22-.04-1.2-.48-2.52-.87-4.14-1.24-.32-.07-.52-.39-.45-.71,.07-.32,.39-.52,.71-.45,1.69,.38,3.06,.8,4.32,1.3,.31,.12,.46,.47,.34,.77-.09,.23-.32,.38-.55,.38Zm-7.52-1.9s-.06,0-.09,0c-3.72-.55-7.49-.55-11.2,0-.33,.05-.63-.18-.68-.5-.05-.33,.18-.63,.5-.68,3.83-.56,7.71-.56,11.55,0,.33,.05,.55,.35,.5,.68-.04,.3-.3,.51-.59,.51Z"/>
      <path class="cls-1" d="M37.38,27.1c-1.28,0-2.24-.97-2.24-2.26s.99-2.34,2.24-2.34c.69,0,1.34,.3,1.78,.81,.44,.51,.63,1.19,.53,1.86-.2,1.15-1.15,1.94-2.31,1.94Zm0-3.41c-.59,0-1.05,.51-1.05,1.15s.44,1.07,1.05,1.07,1.04-.37,1.14-.94c.05-.31-.04-.64-.26-.89-.22-.25-.53-.4-.88-.4Z"/>
      <path class="cls-1" d="M22.64,27.18c-1.26,0-2.24-1.03-2.24-2.34s.99-2.34,2.24-2.34c.69,0,1.34,.3,1.78,.81,.44,.51,.63,1.19,.53,1.86-.21,1.2-1.17,2.02-2.31,2.02Zm0-3.5c-.59,0-1.05,.51-1.05,1.15s.46,1.15,1.05,1.15,1.03-.42,1.14-1.02c.05-.31-.05-.64-.26-.89-.22-.25-.53-.39-.88-.39Z"/>
      <path class="cls-1" d="M48.36,34.15H11.65c-.33,0-.6-.27-.6-.6s.27-.6,.6-.6H48.36c.33,0,.6,.27,.6,.6s-.27,.6-.6,.6Z"/>
    </g>
  </g>
</svg>