<?xml version="1.0" encoding="UTF-8"?>
<svg id="Layer_2" data-name="Layer 2" xmlns="http://www.w3.org/2000/svg" viewBox="0 0 225.98 46.9">
  <defs>
    <style>
      .cls-1 {
        fill: #5e8dc2;
      }

      .cls-2 {
        fill: #a0b4d7;
      }

      .cls-3 {
        fill: #0071ce;
      }

      .cls-4 {
        fill: #0572b2;
      }
    </style>
  </defs>
  <g id="Layer_1-2" data-name="Layer 1">
    <g>
      <path class="cls-3" d="M225.03,9.51c-2.16-4.4-6.76-5.66-11.2-5.66-5.25,.04-11.04,2.45-11.04,8.31,0,6.39,5.37,7.94,11.2,8.63,3.79,.41,6.6,1.51,6.6,4.2,0,3.09-3.17,4.27-6.56,4.27s-6.76-1.38-8.03-4.52l-4.48,2.32c2.12,5.21,6.6,7,12.43,7,6.35,0,11.97-2.73,11.97-9.08,0-6.8-5.54-8.35-11.49-9.09-3.42-.41-6.35-1.1-6.35-3.59,0-2.12,1.91-3.79,5.91-3.79,3.09,0,5.78,1.55,6.76,3.18l4.27-2.2Zm-25.25-4.68h-6.68l-10.83,12.06V4.82h-5.37v28.51h5.37v-12.63l11.94,12.63h6.64v-.33l-13.73-14.38,12.67-13.65v-.16Zm-27.86,23.22h-16.01v-6.43h15.44v-5.01h-15.44v-6.56h16.01V4.82h-21.34v28.51h21.34v-5.3ZM126.18,9.92h5.86c6.19,0,8.8,4.44,8.92,8.88,.12,4.64-2.44,9.37-8.92,9.37h-5.86V9.92Zm5.86-5.09h-11.2v28.51h11.2c9.98,0,14.38-7.29,14.26-14.5-.12-7.05-4.48-14.01-14.26-14.01m-30.22,4.32c6.72,0,9.41,5.38,9.33,10.18-.08,4.68-2.61,9.73-9.33,9.73s-9.25-5.01-9.37-9.69c-.12-4.81,2.65-10.22,9.37-10.22m0-4.89c-9.86,0-14.66,7.54-14.66,15.03s4.64,14.7,14.66,14.7,14.54-7.37,14.62-14.75c.08-7.45-4.81-14.99-14.62-14.99m-15.48,.57h-6.68l-10.83,12.06V4.82h-5.38v28.51h5.38v-12.63l11.93,12.63h6.64v-.33l-13.73-14.38,12.67-13.65v-.16Z"/>
      <path class="cls-2" d="M43.77,37.79H3.01c-1.66,0-3.01-1.35-3.01-3.01s1.35-3.01,3.01-3.01H43.77c1.66,0,3.01,1.35,3.01,3.01s-1.35,3.01-3.01,3.01"/>
      <path class="cls-1" d="M34.17,21.9H12.61c-1.66,0-3.01-1.35-3.01-3.01s1.35-3.01,3.01-3.01h21.57c1.66,0,3.01,1.35,3.01,3.01s-1.35,3.01-3.01,3.01"/>
      <path class="cls-4" d="M25.76,6.01h-4.74c-1.66,0-3.01-1.35-3.01-3.01s1.35-3.01,3.01-3.01h4.74c1.66,0,3.01,1.35,3.01,3.01s-1.35,3.01-3.01,3.01"/>
      <g>
        <path class="cls-3" d="M157,46.8h-.81v-6.26h-2.21v-.72h5.23v.72h-2.21v6.26Z"/>
        <path class="cls-3" d="M164.16,46.8h-3.89v-6.98h3.89v.72h-3.08v2.25h2.89v.72h-2.89v2.57h3.08v.73Z"/>
        <path class="cls-3" d="M168.69,40.45c-.77,0-1.37,.26-1.82,.77s-.67,1.21-.67,2.1,.21,1.62,.64,2.12c.43,.5,1.04,.75,1.83,.75,.49,0,1.04-.09,1.67-.26v.71c-.48,.18-1.08,.27-1.79,.27-1.03,0-1.82-.31-2.38-.94-.56-.62-.84-1.51-.84-2.66,0-.72,.13-1.35,.4-1.89,.27-.54,.66-.96,1.16-1.25s1.11-.44,1.79-.44c.73,0,1.37,.13,1.92,.4l-.34,.7c-.53-.25-1.06-.37-1.59-.37Z"/>
        <path class="cls-3" d="M177.17,46.8h-.81v-3.28h-3.68v3.28h-.81v-6.98h.81v2.97h3.68v-2.97h.81v6.98Z"/>
        <path class="cls-3" d="M184.54,46.8h-.93l-3.81-5.86h-.04c.05,.69,.08,1.32,.08,1.89v3.97h-.75v-6.98h.92l3.81,5.83h.04c0-.09-.02-.36-.04-.83s-.03-.8-.02-1v-4.01h.76v6.98Z"/>
        <path class="cls-3" d="M192.52,43.3c0,1.12-.28,2-.85,2.64-.57,.64-1.35,.96-2.36,.96s-1.82-.31-2.38-.94-.84-1.52-.84-2.66,.28-2.02,.84-2.64c.56-.63,1.36-.94,2.39-.94s1.79,.32,2.35,.95c.56,.64,.84,1.52,.84,2.64Zm-5.56,0c0,.95,.2,1.66,.6,2.15,.4,.49,.99,.73,1.75,.73s1.36-.24,1.75-.73c.39-.49,.59-1.2,.59-2.15s-.2-1.65-.59-2.14c-.39-.49-.97-.73-1.74-.73s-1.36,.24-1.76,.73c-.4,.49-.6,1.2-.6,2.13Z"/>
        <path class="cls-3" d="M194.07,46.8v-6.98h.81v6.24h3.08v.74h-3.89Z"/>
        <path class="cls-3" d="M205.21,43.3c0,1.12-.28,2-.85,2.64-.57,.64-1.35,.96-2.36,.96s-1.82-.31-2.38-.94-.84-1.52-.84-2.66,.28-2.02,.84-2.64c.56-.63,1.36-.94,2.39-.94s1.79,.32,2.35,.95c.56,.64,.84,1.52,.84,2.64Zm-5.56,0c0,.95,.2,1.66,.6,2.15,.4,.49,.99,.73,1.75,.73s1.36-.24,1.75-.73c.39-.49,.59-1.2,.59-2.15s-.2-1.65-.59-2.14c-.39-.49-.97-.73-1.74-.73s-1.36,.24-1.76,.73c-.4,.49-.6,1.2-.6,2.13Z"/>
        <path class="cls-3" d="M209.83,43.15h2.37v3.39c-.37,.12-.74,.21-1.13,.27-.38,.06-.82,.09-1.33,.09-1.06,0-1.88-.31-2.47-.94-.59-.63-.88-1.51-.88-2.64,0-.73,.15-1.36,.44-1.91,.29-.55,.71-.96,1.26-1.25,.55-.29,1.19-.43,1.92-.43s1.44,.14,2.08,.41l-.32,.72c-.63-.27-1.24-.4-1.82-.4-.85,0-1.51,.25-1.99,.76-.48,.51-.72,1.21-.72,2.11,0,.94,.23,1.66,.69,2.14,.46,.49,1.14,.73,2.03,.73,.48,0,.96-.06,1.42-.17v-2.15h-1.56v-.73Z"/>
        <path class="cls-3" d="M213.88,46.8v-6.98h.81v6.98h-.81Z"/>
        <path class="cls-3" d="M220.5,46.8h-3.89v-6.98h3.89v.72h-3.08v2.25h2.89v.72h-2.89v2.57h3.08v.73Z"/>
        <path class="cls-3" d="M225.98,44.95c0,.61-.22,1.09-.67,1.44-.45,.34-1.05,.52-1.81,.52-.83,0-1.46-.11-1.91-.32v-.78c.29,.12,.6,.22,.94,.29,.34,.07,.67,.1,1,.1,.54,0,.95-.1,1.22-.31,.27-.21,.41-.49,.41-.86,0-.24-.05-.44-.15-.59-.1-.15-.26-.3-.49-.43s-.57-.28-1.04-.44c-.65-.23-1.11-.51-1.39-.83-.28-.32-.42-.73-.42-1.25,0-.54,.2-.97,.61-1.28,.4-.32,.94-.48,1.6-.48s1.33,.13,1.91,.38l-.25,.71c-.58-.24-1.14-.36-1.68-.36-.43,0-.77,.09-1.01,.28-.24,.18-.36,.44-.36,.77,0,.24,.04,.44,.13,.59s.24,.3,.45,.42c.21,.13,.54,.27,.97,.43,.73,.26,1.24,.54,1.51,.84s.41,.69,.41,1.16Z"/>
      </g>
    </g>
  </g>
</svg>