<?xml version="1.0" encoding="UTF-8"?>
<svg id="Layer_2" data-name="Layer 2" xmlns="http://www.w3.org/2000/svg" viewBox="0 0 220.84 178.38">
  <defs>
    <style>
      .cls-1 {
        fill: #5e8dc2;
      }

      .cls-2 {
        fill: #a0b4d7;
      }

      .cls-3 {
        fill: #0572b2;
      }
    </style>
  </defs>
  <g id="Layer_1-2" data-name="Layer 1">
    <g>
      <path class="cls-2" d="M206.64,178.38H14.19c-7.84,0-14.19-6.35-14.19-14.19s6.35-14.19,14.19-14.19H206.64c7.84,0,14.19,6.35,14.19,14.19s-6.35,14.19-14.19,14.19"/>
      <path class="cls-1" d="M161.33,103.39H59.51c-7.84,0-14.19-6.35-14.19-14.19s6.35-14.19,14.19-14.19h101.82c7.84,0,14.19,6.35,14.19,14.19s-6.35,14.19-14.19,14.19"/>
      <path class="cls-3" d="M121.6,28.39h-22.37c-7.84,0-14.19-6.35-14.19-14.19S91.39,0,99.22,0h22.37c7.84,0,14.19,6.35,14.19,14.19s-6.35,14.19-14.19,14.19"/>
    </g>
  </g>
</svg>