<?xml version="1.0" encoding="UTF-8"?>
<svg id="Layer_2" data-name="Layer 2" xmlns="http://www.w3.org/2000/svg" viewBox="0 0 56.37 72.62">
  <defs>
    <style>
      .cls-1 {
        fill: #fff;
      }
    </style>
  </defs>
  <g id="Layer_1-2" data-name="Layer 1">
    <g>
      <path class="cls-1" d="M28.19,58.83c-.33,0-.6-.27-.6-.6v-5.49c0-.33,.27-.6,.6-.6s.6,.27,.6,.6v5.49c0,.33-.27,.6-.6,.6Zm0-19.35c-.33,0-.6-.27-.6-.6v-5.28c0-.33,.27-.6,.6-.6s.6,.27,.6,.6v5.28c0,.33-.27,.6-.6,.6Zm0-19.15c-.33,0-.6-.27-.6-.6v-5.42c0-.33,.27-.6,.6-.6s.6,.27,.6,.6v5.42c0,.33-.27,.6-.6,.6Z"/>
      <path class="cls-1" d="M49.86,65.73h-14.84c-.33,0-.6-.27-.6-.6s.27-.6,.6-.6h14.84c.33,0,.6,.27,.6,.6s-.27,.6-.6,.6Zm-28.43,0H6.52c-.33,0-.6-.27-.6-.6s.27-.6,.6-.6h14.91c.33,0,.6,.27,.6,.6s-.27,.6-.6,.6Z"/>
      <path class="cls-1" d="M28.19,72.62c-4.06,0-7.36-3.36-7.36-7.49s3.3-7.49,7.36-7.49,7.42,3.36,7.42,7.49-3.33,7.49-7.42,7.49Zm0-13.79c-3.4,0-6.17,2.82-6.17,6.3s2.77,6.3,6.17,6.3,6.23-2.83,6.23-6.3-2.8-6.3-6.23-6.3Z"/>
      <path class="cls-1" d="M54.32,15.06H2.13c-1.17,0-2.13-.93-2.13-2.08V2.07C0,.95,.97,0,2.13,0H54.32c1.14,0,2.06,.93,2.06,2.07V12.98c0,1.18-.89,2.08-2.06,2.08ZM2.13,1.19c-.49,0-.94,.42-.94,.88V12.98c0,.5,.41,.88,.94,.88H54.32c.51,0,.87-.36,.87-.88V2.07c0-.42-.35-.88-.87-.88H2.13Z"/>
      <path class="cls-1" d="M47.7,9.57c-1.1,0-1.99-.9-1.99-2.01,0-1.16,.87-2.07,1.99-2.07s2.06,.91,2.06,2.07-.9,2.01-2.06,2.01Zm0-2.89c-.45,0-.8,.38-.8,.88,0,.45,.36,.81,.8,.81,.49,0,.87-.35,.87-.81,0-.51-.36-.88-.87-.88Z"/>
      <path class="cls-1" d="M42.89,9.57c-1.1,0-1.99-.9-1.99-2.01,0-1.16,.87-2.07,1.99-2.07s1.99,.91,1.99,2.07-.89,2.01-1.99,2.01Zm0-2.89c-.45,0-.8,.39-.8,.88,0,.45,.36,.81,.8,.81s.8-.37,.8-.81c0-.5-.34-.88-.8-.88Z"/>
      <path class="cls-1" d="M38.08,9.57c-1.1,0-1.99-.9-1.99-2.01,0-1.16,.87-2.07,1.99-2.07s1.99,.91,1.99,2.07-.89,2.01-1.99,2.01Zm0-2.89c-.45,0-.8,.38-.8,.88,0,.45,.36,.81,.8,.81s.8-.37,.8-.81c0-.5-.34-.88-.8-.88Z"/>
      <path class="cls-1" d="M54.32,34.2H2.13c-1.19,0-2.13-.91-2.13-2.07v-10.91c0-1.12,.97-2.07,2.13-2.07H54.32c1.14,0,2.06,.93,2.06,2.07v10.91c0,1.18-.89,2.07-2.06,2.07ZM2.13,20.33c-.49,0-.94,.42-.94,.88v10.91c0,.49,.41,.88,.94,.88H54.32c.51,0,.87-.36,.87-.88v-10.91c0-.42-.35-.88-.87-.88H2.13Z"/>
      <path class="cls-1" d="M47.7,28.71c-1.1,0-1.99-.9-1.99-2,0-1.16,.87-2.08,1.99-2.08,1.17,0,2.06,.89,2.06,2.08,0,1.12-.9,2-2.06,2Zm0-2.88c-.45,0-.8,.38-.8,.88,0,.45,.36,.81,.8,.81,.49,0,.87-.35,.87-.81,0-.51-.36-.88-.87-.88Z"/>
      <path class="cls-1" d="M42.89,28.71c-1.1,0-1.99-.9-1.99-2,0-1.16,.87-2.08,1.99-2.08s1.99,.91,1.99,2.08c0,1.1-.89,2-1.99,2Zm0-2.88c-.45,0-.8,.39-.8,.88,0,.44,.37,.81,.8,.81s.8-.36,.8-.81c0-.5-.34-.88-.8-.88Z"/>
      <path class="cls-1" d="M38.08,28.71c-1.1,0-1.99-.9-1.99-2,0-1.16,.87-2.08,1.99-2.08s1.99,.91,1.99,2.08c0,1.1-.89,2-1.99,2Zm0-2.88c-.45,0-.8,.38-.8,.88,0,.45,.36,.81,.8,.81s.8-.36,.8-.81c0-.5-.34-.88-.8-.88Z"/>
      <path class="cls-1" d="M54.32,53.34H2.13c-1.19,0-2.13-.91-2.13-2.07v-10.84c0-1.18,.95-2.14,2.13-2.14H54.32c1.15,0,2.06,.94,2.06,2.14v10.84c0,1.18-.89,2.07-2.06,2.07ZM2.13,39.48c-.51,0-.94,.43-.94,.95v10.84c0,.49,.41,.88,.94,.88H54.32c.51,0,.87-.36,.87-.88v-10.84c0-.53-.38-.95-.87-.95H2.13Z"/>
      <path class="cls-1" d="M47.7,47.85c-1.1,0-1.99-.9-1.99-2s.91-2.08,1.99-2.08c1.14,0,2.06,.93,2.06,2.08s-.9,2-2.06,2Zm0-2.88c-.42,0-.8,.42-.8,.88s.36,.81,.8,.81c.49,0,.87-.35,.87-.81,0-.43-.35-.88-.87-.88Z"/>
      <path class="cls-1" d="M42.89,47.85c-1.1,0-1.99-.9-1.99-2s.91-2.08,1.99-2.08,1.99,.95,1.99,2.08-.89,2-1.99,2Zm0-2.88c-.42,0-.8,.42-.8,.88,0,.44,.37,.81,.8,.81s.8-.36,.8-.81-.38-.88-.8-.88Z"/>
      <path class="cls-1" d="M38.08,47.85c-1.1,0-1.99-.9-1.99-2s.91-2.08,1.99-2.08,1.99,.95,1.99,2.08-.89,2-1.99,2Zm0-2.88c-.42,0-.8,.42-.8,.88s.36,.81,.8,.81,.8-.36,.8-.81-.38-.88-.8-.88Z"/>
      <path class="cls-1" d="M9.03,8.16h-2.02c-.33,0-.6-.27-.6-.6s.27-.6,.6-.6h2.02c.33,0,.6,.27,.6,.6s-.27,.6-.6,.6Z"/>
      <path class="cls-1" d="M12.51,8.16h-2.02c-.33,0-.6-.27-.6-.6s.27-.6,.6-.6h2.02c.33,0,.6,.27,.6,.6s-.27,.6-.6,.6Z"/>
      <path class="cls-1" d="M15.99,8.16h-2.02c-.33,0-.6-.27-.6-.6s.27-.6,.6-.6h2.02c.33,0,.6,.27,.6,.6s-.27,.6-.6,.6Z"/>
      <path class="cls-1" d="M9.03,27.3h-2.02c-.33,0-.6-.27-.6-.6s.27-.6,.6-.6h2.02c.33,0,.6,.27,.6,.6s-.27,.6-.6,.6Z"/>
      <path class="cls-1" d="M12.51,27.3h-2.02c-.33,0-.6-.27-.6-.6s.27-.6,.6-.6h2.02c.33,0,.6,.27,.6,.6s-.27,.6-.6,.6Z"/>
      <path class="cls-1" d="M15.99,27.3h-2.02c-.33,0-.6-.27-.6-.6s.27-.6,.6-.6h2.02c.33,0,.6,.27,.6,.6s-.27,.6-.6,.6Z"/>
      <path class="cls-1" d="M9.03,46.45h-2.02c-.33,0-.6-.27-.6-.6s.27-.6,.6-.6h2.02c.33,0,.6,.27,.6,.6s-.27,.6-.6,.6Z"/>
      <path class="cls-1" d="M12.51,46.45h-2.02c-.33,0-.6-.27-.6-.6s.27-.6,.6-.6h2.02c.33,0,.6,.27,.6,.6s-.27,.6-.6,.6Z"/>
      <path class="cls-1" d="M15.99,46.45h-2.02c-.33,0-.6-.27-.6-.6s.27-.6,.6-.6h2.02c.33,0,.6,.27,.6,.6s-.27,.6-.6,.6Z"/>
    </g>
  </g>
</svg>