<?xml version="1.0" encoding="UTF-8"?>
<svg id="Layer_2" data-name="Layer 2" xmlns="http://www.w3.org/2000/svg" viewBox="0 0 72.57 71.65">
  <defs>
    <style>
      .cls-1 {
        fill: #fff;
      }
    </style>
  </defs>
  <g id="Layer_1-2" data-name="Layer 1">
    <g>
      <path class="cls-1" d="M10.01,44.51H.6c-.33,0-.6-.27-.6-.6V.6C0,.27,.27,0,.6,0H58.05c.33,0,.6,.27,.6,.6V14.25c0,.33-.27,.6-.6,.6s-.6-.27-.6-.6V1.19H1.19V43.31H10.01c.33,0,.6,.27,.6,.6s-.27,.6-.6,.6Z"/>
      <path class="cls-1" d="M49.93,57.85H9.94c-.33,0-.6-.27-.6-.6V13.94c0-.33,.27-.6,.6-.6h57.45c.33,0,.6,.27,.6,.6v31.5c0,.33-.27,.6-.6,.6s-.6-.27-.6-.6V14.53H10.53V56.65H49.93c.33,0,.6,.27,.6,.6s-.27,.6-.6,.6Z"/>
      <path class="cls-1" d="M67.01,24.11H32.48c-.12,0-.23-.03-.33-.1l-4.18-2.74H10.39c-.33,0-.6-.27-.6-.6s.27-.6,.6-.6H28.15c.12,0,.23,.03,.33,.1l4.18,2.74h34.35c.33,0,.6,.27,.6,.6s-.27,.6-.6,.6Z"/>
      <path class="cls-1" d="M62,20.74c-1.01,0-1.89-.89-1.89-1.9,0-1.09,.85-1.98,1.89-1.98s1.96,.89,1.96,1.98c0,1.03-.9,1.9-1.96,1.9Zm0-2.68c-.37,0-.69,.37-.69,.78,0,.36,.34,.7,.69,.7,.41,0,.77-.33,.77-.7,0-.43-.34-.78-.77-.78Z"/>
      <path class="cls-1" d="M57.45,20.74c-1.01,0-1.89-.89-1.89-1.9,0-1.07,.86-1.98,1.89-1.98,1.08,0,1.96,.89,1.96,1.98,0,1.03-.9,1.9-1.96,1.9Zm0-2.68c-.37,0-.69,.37-.69,.78,0,.36,.34,.7,.69,.7,.41,0,.77-.33,.77-.7,0-.44-.34-.78-.77-.78Z"/>
      <path class="cls-1" d="M57.6,10.47H23.06c-.12,0-.23-.03-.33-.1l-4.17-2.73H1.05c-.33,0-.6-.27-.6-.6s.27-.6,.6-.6H18.74c.12,0,.23,.03,.33,.1l4.17,2.73H57.6c.33,0,.6,.27,.6,.6s-.27,.6-.6,.6Z"/>
      <path class="cls-1" d="M52.66,7.1c-1.06,0-1.96-.87-1.96-1.89,0-1.09,.88-1.98,1.96-1.98,1.02,0,1.89,.91,1.89,1.98,0,1.01-.88,1.89-1.89,1.89Zm0-2.68c-.43,0-.77,.35-.77,.79,0,.33,.32,.7,.77,.7,.35,0,.7-.35,.7-.7,0-.46-.37-.79-.7-.79Z"/>
      <path class="cls-1" d="M48.04,7.1c-1.01,0-1.89-.89-1.89-1.89,0-1.07,.87-1.98,1.89-1.98,1.08,0,1.96,.89,1.96,1.98,0,1.03-.9,1.89-1.96,1.89Zm0-2.68c-.33,0-.7,.32-.7,.79,0,.35,.34,.7,.7,.7,.45,0,.77-.37,.77-.7,0-.44-.34-.79-.77-.79Z"/>
      <path class="cls-1" d="M39.31,31.93H15.85c-.33,0-.6-.27-.6-.6s.27-.6,.6-.6h23.45c.33,0,.6,.27,.6,.6s-.27,.6-.6,.6Z"/>
      <path class="cls-1" d="M45.98,31.93h-3.79c-.33,0-.6-.27-.6-.6s.27-.6,.6-.6h3.79c.33,0,.6,.27,.6,.6s-.27,.6-.6,.6Z"/>
      <path class="cls-1" d="M34.3,35.69H15.85c-.33,0-.6-.27-.6-.6s.27-.6,.6-.6h18.44c.33,0,.6,.27,.6,.6s-.27,.6-.6,.6Z"/>
      <path class="cls-1" d="M45.98,35.69h-3.79c-.33,0-.6-.27-.6-.6s.27-.6,.6-.6h3.79c.33,0,.6,.27,.6,.6s-.27,.6-.6,.6Z"/>
      <path class="cls-1" d="M39.38,35.69h-2.66c-.33,0-.6-.27-.6-.6s.27-.6,.6-.6h2.66c.33,0,.6,.27,.6,.6s-.27,.6-.6,.6Z"/>
      <path class="cls-1" d="M45.98,39.14H27.54c-.33,0-.6-.27-.6-.6s.27-.6,.6-.6h18.44c.33,0,.6,.27,.6,.6s-.27,.6-.6,.6Z"/>
      <path class="cls-1" d="M19.65,39.14h-3.8c-.33,0-.6-.27-.6-.6s.27-.6,.6-.6h3.8c.33,0,.6,.27,.6,.6s-.27,.6-.6,.6Z"/>
      <path class="cls-1" d="M25.12,39.14h-2.66c-.33,0-.6-.27-.6-.6s.27-.6,.6-.6h2.66c.33,0,.6,.27,.6,.6s-.27,.6-.6,.6Z"/>
      <path class="cls-1" d="M45.98,42.9H22.84c-.33,0-.6-.27-.6-.6s.27-.6,.6-.6h23.14c.33,0,.6,.27,.6,.6s-.27,.6-.6,.6Z"/>
      <path class="cls-1" d="M19.65,42.9h-3.8c-.33,0-.6-.27-.6-.6s.27-.6,.6-.6h3.8c.33,0,.6,.27,.6,.6s-.27,.6-.6,.6Z"/>
      <path class="cls-1" d="M34.3,46.57H15.85c-.33,0-.6-.27-.6-.6s.27-.6,.6-.6h18.44c.33,0,.6,.27,.6,.6s-.27,.6-.6,.6Z"/>
      <path class="cls-1" d="M45.98,46.57h-3.79c-.33,0-.6-.27-.6-.6s.27-.6,.6-.6h3.79c.33,0,.6,.27,.6,.6s-.27,.6-.6,.6Z"/>
      <path class="cls-1" d="M39.38,46.57h-2.66c-.33,0-.6-.27-.6-.6s.27-.6,.6-.6h2.66c.33,0,.6,.27,.6,.6s-.27,.6-.6,.6Z"/>
      <path class="cls-1" d="M15.17,17.91h-1.9c-.33,0-.6-.27-.6-.6s.27-.6,.6-.6h1.9c.33,0,.6,.27,.6,.6s-.27,.6-.6,.6Z"/>
      <path class="cls-1" d="M18.36,17.91h-1.9c-.33,0-.6-.27-.6-.6s.27-.6,.6-.6h1.9c.33,0,.6,.27,.6,.6s-.27,.6-.6,.6Z"/>
      <path class="cls-1" d="M21.55,17.91h-1.9c-.33,0-.6-.27-.6-.6s.27-.6,.6-.6h1.9c.33,0,.6,.27,.6,.6s-.27,.6-.6,.6Z"/>
      <path class="cls-1" d="M5.76,4.56h-1.9c-.33,0-.6-.27-.6-.6s.27-.6,.6-.6h1.9c.33,0,.6,.27,.6,.6s-.27,.6-.6,.6Z"/>
      <path class="cls-1" d="M8.95,4.56h-1.9c-.33,0-.6-.27-.6-.6s.27-.6,.6-.6h1.9c.33,0,.6,.27,.6,.6s-.27,.6-.6,.6Z"/>
      <path class="cls-1" d="M12.13,4.56h-1.9c-.33,0-.6-.27-.6-.6s.27-.6,.6-.6h1.9c.33,0,.6,.27,.6,.6s-.27,.6-.6,.6Z"/>
      <path class="cls-1" d="M60.71,71.65c-.14,0-.29-.05-.4-.16-1.67-1.52-3.09-2.78-4.31-3.85-7.19-6.32-7.25-6.49-7.15-17.47,.01-1.47,.03-3.13,.03-5.04,0-.18,.08-.35,.22-.46,.14-.11,.32-.16,.49-.13,3.94,.73,7.59-.01,10.79-2.21,.22-.15,.52-.14,.73,.04,2.41,2.1,5.9,2.8,10.68,2.16,.17-.02,.34,.03,.47,.14,.13,.11,.2,.28,.2,.45,0,2.38,.03,4.37,.06,6.06,.17,9.74,.1,9.9-7.41,16.66-1.14,1.03-2.47,2.22-4,3.63-.11,.11-.26,.16-.4,.16Zm-10.64-25.8c0,1.62-.02,3.06-.03,4.34q-.1,10.54,6.75,16.56c1.12,.99,2.42,2.13,3.92,3.49,1.36-1.25,2.56-2.33,3.6-3.27q7.18-6.46,7.02-15.75c-.03-1.54-.06-3.32-.06-5.41-4.56,.5-8.07-.25-10.6-2.24-3.17,2.06-6.75,2.83-10.6,2.26Z"/>
      <path class="cls-1" d="M60.71,66.66c-.16,0-.32-.07-.44-.2-.22-.24-.2-.62,.04-.84,.8-.73,1.52-1.38,2.17-1.95q5.23-4.68,5.06-11.31c-.02-.77-.04-1.61-.05-2.56-2.73,0-5.01-.52-6.94-1.6-2.05,1.04-4.35,1.59-6.7,1.6-.06,1.94-.06,3.88-.06,5.77,0,.33-.27,.6-.6,.6s-.6-.27-.6-.6c0-2.08,0-4.23,.08-6.39,.01-.33,.26-.56,.62-.57,2.45,.08,4.87-.47,6.99-1.61,.19-.1,.41-.09,.59,.02,1.92,1.16,4.27,1.69,7.19,1.59,.16,0,.32,.05,.43,.16,.12,.11,.18,.26,.18,.42,.02,1.19,.04,2.23,.06,3.15,.17,7.11,.12,7.22-5.46,12.22-.64,.57-1.36,1.22-2.16,1.95-.11,.1-.26,.16-.4,.16Z"/>
    </g>
  </g>
</svg>