<?xml version="1.0" encoding="UTF-8"?>
<svg id="Layer_2" data-name="Layer 2" xmlns="http://www.w3.org/2000/svg" viewBox="0 0 72.57 54.4">
  <defs>
    <style>
      .cls-1 {
        fill: #fff;
      }
    </style>
  </defs>
  <g id="Layer_1-2" data-name="Layer 1">
    <g>
      <path class="cls-1" d="M22.22,27.46c-3.76,0-6.81-3.11-6.81-6.93s3.06-6.87,6.81-6.87c.38,0,.75,.03,1.14,.08,.5-2.72,2.63-4.91,5.35-5.47,.32-4.6,4.17-8.27,8.8-8.27s8.71,3.89,8.82,8.7c1.86,.93,3.36,2.53,4.18,4.46,2.81,1.07,4.41,3.42,4.41,6.5,0,3.5-3.04,7.73-6.81,7.73-4.6,0-8.9,.02-13.15,.03-4.19,.02-8.35,.03-12.73,.03Zm0-12.61c-3.1,0-5.62,2.55-5.62,5.68s2.47,5.74,5.62,5.74c4.38,0,8.53-.01,12.72-.03,4.26-.02,8.56-.03,13.16-.03,2.97,0,5.62-3.66,5.62-6.54,0-2.66-1.37-4.6-3.86-5.46-.17-.06-.3-.18-.36-.35-.73-1.88-2.2-3.42-4.01-4.22-.22-.1-.36-.31-.36-.55v-.19c0-4.25-3.42-7.71-7.63-7.71s-7.57,3.41-7.63,7.59c0,.3-.23,.55-.52,.58-2.62,.34-4.69,2.49-4.9,5.12-.01,.17-.1,.33-.24,.43-.14,.1-.32,.14-.48,.1-.52-.11-1.02-.17-1.52-.17Z"/>
      <path class="cls-1" d="M30.01,34.84h-10.72c-.33,0-.6-.27-.6-.6s.27-.6,.6-.6h10.12v-10.54c0-.33,.27-.6,.6-.6s.6,.27,.6,.6v11.14c0,.33-.27,.6-.6,.6Z"/>
      <path class="cls-1" d="M53.28,34.84h-10.72c-.33,0-.6-.27-.6-.6v-11.14c0-.33,.27-.6,.6-.6s.6,.27,.6,.6v10.54h10.12c.33,0,.6,.27,.6,.6s-.27,.6-.6,.6Z"/>
      <path class="cls-1" d="M36.1,42.96c-.33,0-.6-.27-.6-.6V23.11c0-.33,.27-.6,.6-.6s.6,.27,.6,.6v19.25c0,.33-.27,.6-.6,.6Z"/>
      <path class="cls-1" d="M45,47.63H27.27c-.58,0-1.08-.51-1.08-1.09v-3.69c0-.61,.48-1.09,1.08-1.09h17.72c.61,0,1.08,.48,1.08,1.09v3.69c0,.58-.51,1.09-1.08,1.09Zm-17.61-1.19h17.5v-3.48H27.38v3.48Z"/>
      <path class="cls-1" d="M30.38,45.42h-1.4c-.33,0-.6-.27-.6-.6s.27-.6,.6-.6h1.4c.33,0,.6,.27,.6,.6s-.27,.6-.6,.6Z"/>
      <path class="cls-1" d="M32.75,45.42h-1.4c-.33,0-.6-.27-.6-.6s.27-.6,.6-.6h1.4c.33,0,.6,.27,.6,.6s-.27,.6-.6,.6Z"/>
      <path class="cls-1" d="M35.19,45.42h-1.46c-.33,0-.6-.27-.6-.6s.27-.6,.6-.6h1.46c.33,0,.6,.27,.6,.6s-.27,.6-.6,.6Z"/>
      <path class="cls-1" d="M45,54.4H27.27c-.59,0-1.08-.53-1.08-1.15v-3.63c0-.62,.5-1.15,1.08-1.15h17.72c.59,0,1.08,.53,1.08,1.15v3.63c0,.62-.5,1.15-1.08,1.15Zm-17.61-1.19h17.5v-3.54H27.38v3.54Z"/>
      <path class="cls-1" d="M30.38,52.13h-1.4c-.33,0-.6-.27-.6-.6s.27-.6,.6-.6h1.4c.33,0,.6,.27,.6,.6s-.27,.6-.6,.6Z"/>
      <path class="cls-1" d="M32.75,52.13h-1.4c-.33,0-.6-.27-.6-.6s.27-.6,.6-.6h1.4c.33,0,.6,.27,.6,.6s-.27,.6-.6,.6Z"/>
      <path class="cls-1" d="M35.19,52.13h-1.46c-.33,0-.6-.27-.6-.6s.27-.6,.6-.6h1.46c.33,0,.6,.27,.6,.6s-.27,.6-.6,.6Z"/>
      <path class="cls-1" d="M71.43,37.18h-17.66c-.61,0-1.08-.48-1.08-1.09v-3.69c0-.58,.51-1.09,1.08-1.09h17.66c.62,0,1.15,.5,1.15,1.09v3.69c0,.62-.49,1.09-1.15,1.09Zm-17.55-1.19h17.5v-3.48h-17.5v3.48Z"/>
      <path class="cls-1" d="M56.87,34.96h-1.46c-.33,0-.6-.27-.6-.6s.27-.6,.6-.6h1.46c.33,0,.6,.27,.6,.6s-.27,.6-.6,.6Z"/>
      <path class="cls-1" d="M59.25,34.96h-1.4c-.33,0-.6-.27-.6-.6s.27-.6,.6-.6h1.4c.33,0,.6,.27,.6,.6s-.27,.6-.6,.6Z"/>
      <path class="cls-1" d="M61.62,34.96h-1.4c-.33,0-.6-.27-.6-.6s.27-.6,.6-.6h1.4c.33,0,.6,.27,.6,.6s-.27,.6-.6,.6Z"/>
      <path class="cls-1" d="M18.81,37.18H1.09c-.61,0-1.09-.48-1.09-1.09v-3.69c0-.58,.51-1.09,1.09-1.09H18.81c.58,0,1.09,.51,1.09,1.09v3.69c0,.61-.48,1.09-1.09,1.09Zm-17.61-1.19H18.7v-3.48H1.19v3.48Z"/>
      <path class="cls-1" d="M4.19,34.96h-1.4c-.33,0-.6-.27-.6-.6s.27-.6,.6-.6h1.4c.33,0,.6,.27,.6,.6s-.27,.6-.6,.6Z"/>
      <path class="cls-1" d="M6.56,34.96h-1.4c-.33,0-.6-.27-.6-.6s.27-.6,.6-.6h1.4c.33,0,.6,.27,.6,.6s-.27,.6-.6,.6Z"/>
      <path class="cls-1" d="M9,34.96h-1.46c-.33,0-.6-.27-.6-.6s.27-.6,.6-.6h1.46c.33,0,.6,.27,.6,.6s-.27,.6-.6,.6Z"/>
    </g>
  </g>
</svg>