<?xml version="1.0" encoding="UTF-8"?>
<svg id="Layer_2" data-name="Layer 2" xmlns="http://www.w3.org/2000/svg" viewBox="0 0 66.45 66.58">
  <defs>
    <style>
      .cls-1 {
        fill: #fff;
      }
    </style>
  </defs>
  <g id="Layer_1-2" data-name="Layer 1">
    <g>
      <path class="cls-1" d="M48.93,50.57c-.3,0-.54-.24-.55-.54,0-.3,.24-.55,.54-.55l16.43-.14V1.09H1.09V49.33H17.15c.3,0,.55,.24,.55,.55s-.24,.55-.55,.55H.55c-.3,0-.55-.24-.55-.55V.55C0,.24,.24,0,.55,0H65.91c.3,0,.55,.24,.55,.55V49.87c0,.3-.24,.54-.54,.55l-16.98,.15h0Z"/>
      <path class="cls-1" d="M65.38,11.68H26.12c-.11,0-.21-.03-.3-.09l-4.72-3.09H1.07c-.3,0-.55-.24-.55-.55s.24-.55,.55-.55H21.26c.11,0,.21,.03,.3,.09l4.72,3.09h39.1c.3,0,.55,.24,.55,.55s-.24,.55-.55,.55Z"/>
      <path class="cls-1" d="M59.78,7.82c-1.13,0-2.04-.92-2.04-2.06s.92-2.05,2.04-2.05,2.04,.92,2.04,2.05-.92,2.06-2.04,2.06Zm0-3.02c-.52,0-.95,.43-.95,.96s.43,.96,.95,.96,.95-.43,.95-.96-.42-.96-.95-.96Z"/>
      <path class="cls-1" d="M54.54,7.82c-1.13,0-2.04-.92-2.04-2.06s.92-2.05,2.04-2.05c1.19,0,2.12,.9,2.12,2.05s-.93,2.06-2.12,2.06Zm0-3.02c-.52,0-.95,.43-.95,.96s.42,.96,.95,.96c.58,0,1.02-.41,1.02-.96s-.45-.96-1.02-.96Z"/>
      <path class="cls-1" d="M35.02,66.58h-3.52c-.27,0-.5-.2-.54-.47l-.91-6.33c-2.68-.5-5.19-1.54-7.29-3.04l-5.14,3.84c-.22,.16-.52,.14-.72-.05l-2.47-2.49c-.19-.19-.21-.49-.05-.71l3.81-5.2c-1.53-2.26-2.54-4.77-2.96-7.29l-6.33-.99c-.27-.04-.46-.27-.46-.54v-1.74c0-.3,.24-.55,.55-.55H57.53c.3,0,.55,.24,.55,.55v1.74c0,.27-.2,.5-.46,.54l-6.34,1c-.5,2.67-1.53,5.18-3.01,7.29l3.8,5.2c.16,.22,.14,.52-.05,.71l-2.47,2.49c-.19,.19-.5,.22-.72,.05l-5.14-3.84c-2.13,1.52-4.55,2.55-7.21,3.04l-.92,6.33c-.04,.27-.27,.47-.54,.47Zm-3.04-1.09h2.57l.91-6.25c.03-.24,.22-.42,.45-.46,2.78-.46,5.29-1.52,7.46-3.15,.2-.15,.46-.15,.66,0l5.08,3.79,1.8-1.82-3.76-5.14c-.14-.19-.14-.46,0-.65,1.58-2.15,2.66-4.75,3.12-7.54,.04-.23,.22-.41,.46-.45l6.27-.98v-.72H9.54v.72l6.27,.98c.24,.04,.42,.23,.46,.47,.36,2.61,1.42,5.21,3.05,7.54,.14,.19,.13,.45,0,.64l-3.77,5.14,1.8,1.82,5.08-3.79c.19-.15,.46-.15,.65,0,2.13,1.6,4.74,2.69,7.54,3.15,.24,.04,.42,.23,.45,.46l.9,6.25Z"/>
      <path class="cls-1" d="M33.26,52.44c-2.88,0-5.59-1.12-7.61-3.16-2.08-2.11-3.22-4.85-3.22-7.71,0-.3,.24-.55,.55-.55s.55,.24,.55,.55c0,2.58,1.03,5.04,2.91,6.94,1.81,1.83,4.24,2.84,6.83,2.84h0c2.59,0,5.01-1.01,6.82-2.84,1.83-1.85,2.83-4.32,2.83-6.94,0-.3,.24-.55,.55-.55s.55,.24,.55,.55c0,2.92-1.12,5.66-3.15,7.71-2.02,2.04-4.72,3.16-7.6,3.16h0Z"/>
      <path class="cls-1" d="M62.77,23.83h-14.51c-.3,0-.55-.24-.55-.55v-4.68c0-.3,.24-.55,.55-.55h14.51c.3,0,.55,.24,.55,.55v4.68c0,.3-.24,.55-.55,.55Zm-13.96-1.09h13.42v-3.59h-13.42v3.59Z"/>
      <path class="cls-1" d="M62.77,32.14h-14.51c-.3,0-.55-.24-.55-.55v-4.76c0-.3,.24-.55,.55-.55h14.51c.3,0,.55,.24,.55,.55v4.76c0,.3-.24,.55-.55,.55Zm-13.96-1.09h13.42v-3.66h-13.42v3.66Z"/>
      <path class="cls-1" d="M28.82,17.86H7.12c-.3,0-.55-.24-.55-.55s.24-.55,.55-.55H28.82c.3,0,.55,.24,.55,.55s-.24,.55-.55,.55Z"/>
      <path class="cls-1" d="M28.82,22.17H7.12c-.3,0-.55-.24-.55-.55s.24-.55,.55-.55H28.82c.3,0,.55,.24,.55,.55s-.24,.55-.55,.55Z"/>
      <path class="cls-1" d="M19.09,26.4H7.12c-.3,0-.55-.24-.55-.55s.24-.55,.55-.55h11.97c.3,0,.55,.24,.55,.55s-.24,.55-.55,.55Z"/>
      <path class="cls-1" d="M28.82,30.71h-7.1c-.3,0-.55-.24-.55-.55s.24-.55,.55-.55h7.1c.3,0,.55,.24,.55,.55s-.24,.55-.55,.55Z"/>
      <path class="cls-1" d="M28.82,34.93H7.12c-.3,0-.55-.24-.55-.55s.24-.55,.55-.55H28.82c.3,0,.55,.24,.55,.55s-.24,.55-.55,.55Z"/>
      <path class="cls-1" d="M18.04,30.71h-7.1c-.3,0-.55-.24-.55-.55s.24-.55,.55-.55h7.1c.3,0,.55,.24,.55,.55s-.24,.55-.55,.55Z"/>
      <path class="cls-1" d="M24.55,26.4h-3.81c-.3,0-.55-.24-.55-.55s.24-.55,.55-.55h3.81c.3,0,.55,.24,.55,.55s-.24,.55-.55,.55Z"/>
      <path class="cls-1" d="M62.32,42.11H4.13c-.3,0-.55-.24-.55-.55s.24-.55,.55-.55H62.32c.3,0,.55,.24,.55,.55s-.24,.55-.55,.55Z"/>
      <path class="cls-1" d="M63.74,35.69h-16.53c-.3,0-.55-.24-.55-.55s.24-.55,.55-.55h16.53c.3,0,.55,.24,.55,.55s-.24,.55-.55,.55Z"/>
    </g>
  </g>
</svg>