<?xml version="1.0" encoding="UTF-8"?>
<svg id="Layer_2" data-name="Layer 2" xmlns="http://www.w3.org/2000/svg" viewBox="0 0 53.64 72.62">
  <defs>
    <style>
      .cls-1 {
        fill: #fff;
      }
    </style>
  </defs>
  <g id="Layer_1-2" data-name="Layer 1">
    <g>
      <path class="cls-1" d="M26.82,63.86c-.33,0-.6-.27-.6-.6v-7.36c0-.33,.27-.6,.6-.6s.6,.27,.6,.6v7.36c0,.33-.27,.6-.6,.6Z"/>
      <path class="cls-1" d="M47.41,68.27H31.12c-.33,0-.6-.27-.6-.6s.27-.6,.6-.6h16.29c.33,0,.6,.27,.6,.6s-.27,.6-.6,.6Zm-24.96,0H6.22c-.33,0-.6-.27-.6-.6s.27-.6,.6-.6H22.45c.33,0,.6,.27,.6,.6s-.27,.6-.6,.6Z"/>
      <path class="cls-1" d="M26.82,72.62c-2.74,0-4.97-2.22-4.97-4.95s2.27-5.01,4.97-5.01,4.9,2.25,4.9,5.01-2.2,4.95-4.9,4.95Zm0-8.76c-2.05,0-3.77,1.75-3.77,3.81s1.69,3.75,3.77,3.75,3.71-1.68,3.71-3.75-1.66-3.81-3.71-3.81Z"/>
      <path class="cls-1" d="M51.58,56.5H1.99c-1.13,0-1.99-.86-1.99-2v-10.3c0-1.16,.87-2.07,1.99-2.07H51.58c1.13,0,2.05,.93,2.05,2.07v10.3c0,1.12-.9,2-2.05,2ZM1.99,43.33c-.45,0-.8,.38-.8,.87v10.3c0,.48,.33,.81,.8,.81H51.58c.48,0,.86-.36,.86-.81v-10.3c0-.47-.39-.87-.86-.87H1.99Z"/>
      <path class="cls-1" d="M45.36,51.29c-1.06,0-1.92-.87-1.92-1.93s.86-1.94,1.92-1.94,1.92,.87,1.92,1.94-.86,1.93-1.92,1.93Zm0-2.67c-.4,0-.73,.33-.73,.74s.33,.74,.73,.74,.73-.34,.73-.74-.33-.74-.73-.74Z"/>
      <path class="cls-1" d="M40.73,51.29c-1.06,0-1.92-.87-1.92-1.93s.86-1.94,1.92-1.94c1.11,0,1.99,.85,1.99,1.94s-.87,1.93-1.99,1.93Zm0-2.67c-.4,0-.73,.33-.73,.74s.33,.74,.73,.74c.44,0,.79-.32,.79-.74s-.34-.74-.79-.74Z"/>
      <path class="cls-1" d="M36.16,51.29c-1.06,0-1.92-.87-1.92-1.93s.86-1.94,1.92-1.94,1.92,.87,1.92,1.94-.86,1.93-1.92,1.93Zm0-2.67c-.4,0-.73,.33-.73,.74s.33,.74,.73,.74,.73-.34,.73-.74-.33-.74-.73-.74Z"/>
      <path class="cls-1" d="M32.47,43.33h-11.34c-.18,0-.34-.08-.46-.22-.11-.14-.16-.31-.13-.49l5.7-31.23c.05-.28,.3-.49,.59-.49h0c.29,0,.53,.21,.59,.49l5.61,31.09c.03,.08,.05,.16,.05,.25,0,.33-.27,.6-.6,.6Zm-10.63-1.19h9.9l-4.92-27.29-4.98,27.29Z"/>
      <path class="cls-1" d="M35.1,14.37c-.11,0-.23-.03-.33-.1-.27-.18-.35-.55-.16-.83,1.23-1.84,1.89-3.99,1.89-6.22s-.65-4.45-1.89-6.29c-.18-.27-.11-.64,.16-.83,.28-.18,.64-.11,.83,.16,1.37,2.04,2.09,4.44,2.09,6.96s-.72,4.85-2.09,6.88c-.11,.17-.3,.27-.5,.27Z"/>
      <path class="cls-1" d="M32.58,12.5c-.11,0-.22-.03-.32-.1-.28-.18-.36-.55-.18-.82,.85-1.31,1.29-2.82,1.29-4.36s-.44-3.03-1.3-4.44c-.17-.28-.09-.65,.2-.82,.28-.17,.65-.08,.82,.2,.98,1.6,1.48,3.3,1.48,5.06s-.51,3.49-1.49,5c-.11,.18-.31,.27-.5,.27Z"/>
      <path class="cls-1" d="M29.93,10.56c-.1,0-.2-.03-.3-.08-.29-.16-.38-.53-.22-.81,.42-.73,.65-1.58,.65-2.44s-.22-1.71-.65-2.45c-.16-.28-.07-.65,.22-.81,.29-.16,.65-.07,.81,.22,.53,.91,.81,1.97,.81,3.04s-.28,2.12-.81,3.04c-.11,.19-.31,.3-.52,.3Z"/>
      <path class="cls-1" d="M26.89,8.88c-.93,0-1.66-.73-1.66-1.66s.74-1.74,1.66-1.74,1.72,.81,1.72,1.74-.77,1.66-1.72,1.66Zm0-2.21c-.25,0-.46,.25-.46,.54,0,.27,.19,.47,.46,.47s.53-.19,.53-.47-.26-.54-.53-.54Z"/>
      <path class="cls-1" d="M18.67,14.37c-.19,0-.38-.09-.5-.26-1.32-1.97-2.02-4.35-2.02-6.89s.7-4.99,2.02-6.96c.18-.27,.55-.35,.83-.16,.27,.18,.35,.55,.16,.83-1.19,1.77-1.82,3.95-1.82,6.29s.63,4.45,1.82,6.22c.18,.27,.11,.64-.16,.83-.1,.07-.22,.1-.33,.1Z"/>
      <path class="cls-1" d="M21.19,12.5c-.2,0-.39-.1-.5-.27-.93-1.45-1.43-3.18-1.43-5s.48-3.53,1.42-5.06c.17-.28,.54-.37,.82-.2,.28,.17,.37,.54,.2,.82-.82,1.34-1.24,2.84-1.24,4.44s.43,3.1,1.23,4.36c.18,.28,.1,.65-.18,.82-.1,.06-.21,.1-.32,.1Z"/>
      <path class="cls-1" d="M23.84,10.56c-.21,0-.41-.11-.52-.3-.53-.91-.81-1.97-.81-3.04s.28-2.13,.81-3.04c.16-.28,.53-.38,.81-.22,.29,.16,.38,.53,.22,.81-.42,.73-.65,1.58-.65,2.45s.22,1.71,.65,2.44c.16,.28,.07,.65-.22,.81-.09,.05-.2,.08-.3,.08Z"/>
      <path class="cls-1" d="M20.13,51.49H3.77c-.33,0-.6-.27-.6-.6v-3.14c0-.33,.27-.6,.6-.6H20.13c.33,0,.6,.27,.6,.6v3.14c0,.33-.27,.6-.6,.6Zm-15.76-1.19h15.16v-1.95H4.37v1.95Z"/>
    </g>
  </g>
</svg>