<?xml version="1.0" encoding="UTF-8"?>
<svg id="Layer_2" data-name="Layer 2" xmlns="http://www.w3.org/2000/svg" xmlns:xlink="http://www.w3.org/1999/xlink" viewBox="0 0 1776.96 906.87">
  <defs>
    <style>
      .cls-1 {
        fill: none;
        stroke: #2b70b8;
        stroke-miterlimit: 10;
        stroke-width: 2px;
      }

      .cls-2 {
        font-family: Poppins-Bold, Poppins;
        font-size: 29px;
        font-weight: 700;
      }

      .cls-2, .cls-3, .cls-4, .cls-5, .cls-6, .cls-7, .cls-8, .cls-9, .cls-10, .cls-11, .cls-12, .cls-13, .cls-14 {
        fill: #fff;
      }

      .cls-3 {
        filter: url(#drop-shadow-4);
      }

      .cls-4 {
        filter: url(#drop-shadow-3);
      }

      .cls-5 {
        filter: url(#drop-shadow-9);
      }

      .cls-6 {
        filter: url(#drop-shadow-2);
      }

      .cls-7 {
        filter: url(#drop-shadow-8);
      }

      .cls-8 {
        filter: url(#drop-shadow-5);
      }

      .cls-9 {
        filter: url(#drop-shadow-1);
      }

      .cls-15 {
        fill: #0071ce;
      }

      .cls-10 {
        filter: url(#drop-shadow-7);
      }

      .cls-11 {
        filter: url(#drop-shadow-6);
      }

      .cls-12 {
        filter: url(#drop-shadow-12);
      }

      .cls-13 {
        filter: url(#drop-shadow-10);
      }

      .cls-14 {
        filter: url(#drop-shadow-11);
      }
    </style>
    <filter id="drop-shadow-1" filterUnits="userSpaceOnUse">
      <feOffset dx="-5" dy="27"/>
      <feGaussianBlur result="blur" stdDeviation="16"/>
      <feFlood flood-color="#09183a" flood-opacity=".29"/>
      <feComposite in2="blur" operator="in"/>
      <feComposite in="SourceGraphic"/>
    </filter>
    <filter id="drop-shadow-2" filterUnits="userSpaceOnUse">
      <feOffset dx="-5" dy="27"/>
      <feGaussianBlur result="blur-2" stdDeviation="16"/>
      <feFlood flood-color="#09183a" flood-opacity=".29"/>
      <feComposite in2="blur-2" operator="in"/>
      <feComposite in="SourceGraphic"/>
    </filter>
    <filter id="drop-shadow-3" filterUnits="userSpaceOnUse">
      <feOffset dx="-5" dy="27"/>
      <feGaussianBlur result="blur-3" stdDeviation="16"/>
      <feFlood flood-color="#09183a" flood-opacity=".29"/>
      <feComposite in2="blur-3" operator="in"/>
      <feComposite in="SourceGraphic"/>
    </filter>
    <filter id="drop-shadow-4" filterUnits="userSpaceOnUse">
      <feOffset dx="-5" dy="27"/>
      <feGaussianBlur result="blur-4" stdDeviation="16"/>
      <feFlood flood-color="#09183a" flood-opacity=".29"/>
      <feComposite in2="blur-4" operator="in"/>
      <feComposite in="SourceGraphic"/>
    </filter>
    <filter id="drop-shadow-5" filterUnits="userSpaceOnUse">
      <feOffset dx="-5" dy="27"/>
      <feGaussianBlur result="blur-5" stdDeviation="16"/>
      <feFlood flood-color="#09183a" flood-opacity=".29"/>
      <feComposite in2="blur-5" operator="in"/>
      <feComposite in="SourceGraphic"/>
    </filter>
    <filter id="drop-shadow-6" filterUnits="userSpaceOnUse">
      <feOffset dx="-5" dy="27"/>
      <feGaussianBlur result="blur-6" stdDeviation="16"/>
      <feFlood flood-color="#09183a" flood-opacity=".29"/>
      <feComposite in2="blur-6" operator="in"/>
      <feComposite in="SourceGraphic"/>
    </filter>
    <filter id="drop-shadow-7" filterUnits="userSpaceOnUse">
      <feOffset dx="-5" dy="27"/>
      <feGaussianBlur result="blur-7" stdDeviation="16"/>
      <feFlood flood-color="#09183a" flood-opacity=".29"/>
      <feComposite in2="blur-7" operator="in"/>
      <feComposite in="SourceGraphic"/>
    </filter>
    <filter id="drop-shadow-8" filterUnits="userSpaceOnUse">
      <feOffset dx="-5" dy="27"/>
      <feGaussianBlur result="blur-8" stdDeviation="16"/>
      <feFlood flood-color="#09183a" flood-opacity=".29"/>
      <feComposite in2="blur-8" operator="in"/>
      <feComposite in="SourceGraphic"/>
    </filter>
    <filter id="drop-shadow-9" filterUnits="userSpaceOnUse">
      <feOffset dx="-5" dy="27"/>
      <feGaussianBlur result="blur-9" stdDeviation="16"/>
      <feFlood flood-color="#09183a" flood-opacity=".29"/>
      <feComposite in2="blur-9" operator="in"/>
      <feComposite in="SourceGraphic"/>
    </filter>
    <filter id="drop-shadow-10" filterUnits="userSpaceOnUse">
      <feOffset dx="-5" dy="27"/>
      <feGaussianBlur result="blur-10" stdDeviation="16"/>
      <feFlood flood-color="#09183a" flood-opacity=".29"/>
      <feComposite in2="blur-10" operator="in"/>
      <feComposite in="SourceGraphic"/>
    </filter>
    <filter id="drop-shadow-11" filterUnits="userSpaceOnUse">
      <feOffset dx="-5" dy="27"/>
      <feGaussianBlur result="blur-11" stdDeviation="16"/>
      <feFlood flood-color="#09183a" flood-opacity=".29"/>
      <feComposite in2="blur-11" operator="in"/>
      <feComposite in="SourceGraphic"/>
    </filter>
    <filter id="drop-shadow-12" filterUnits="userSpaceOnUse">
      <feOffset dx="-5" dy="27"/>
      <feGaussianBlur result="blur-12" stdDeviation="16"/>
      <feFlood flood-color="#09183a" flood-opacity=".29"/>
      <feComposite in2="blur-12" operator="in"/>
      <feComposite in="SourceGraphic"/>
    </filter>
  </defs>
  <g id="Layer_1-2" data-name="Layer 1">
    <rect class="cls-1" x="17.28" y="1" width="1752.51" height="868.37" rx="43.26" ry="43.26"/>
    <rect class="cls-9" x="53.21" y="38.72" width="538.16" height="171.06" rx="31.75" ry="31.75"/>
    <rect class="cls-6" x="624.46" y="38.72" width="538.16" height="171.06" rx="31.75" ry="31.75"/>
    <rect class="cls-4" x="1195.7" y="38.72" width="538.16" height="171.06" rx="31.75" ry="31.75"/>
    <g>
      <rect class="cls-3" x="53.21" y="246.01" width="538.16" height="171.06" rx="31.75" ry="31.75"/>
      <rect class="cls-8" x="624.46" y="246.01" width="538.16" height="171.06" rx="31.75" ry="31.75"/>
      <rect class="cls-11" x="1195.7" y="246.01" width="538.16" height="171.06" rx="31.75" ry="31.75"/>
    </g>
    <g>
      <rect class="cls-10" x="53.21" y="453.3" width="538.16" height="171.06" rx="31.75" ry="31.75"/>
      <rect class="cls-7" x="624.46" y="453.3" width="538.16" height="171.06" rx="31.75" ry="31.75"/>
      <rect class="cls-5" x="1195.7" y="453.3" width="538.16" height="171.06" rx="31.75" ry="31.75"/>
    </g>
    <g>
      <rect class="cls-13" x="53.21" y="660.59" width="538.16" height="171.06" rx="31.75" ry="31.75"/>
      <rect class="cls-14" x="624.46" y="660.59" width="538.16" height="171.06" rx="31.75" ry="31.75"/>
      <rect class="cls-12" x="1195.7" y="660.59" width="538.16" height="171.06" rx="31.75" ry="31.75"/>
    </g>
    <path class="cls-15" d="M76.52,38.72h491.55c12.86,0,23.31,10.44,23.31,23.31v120.79c0,14.88-12.08,26.96-26.96,26.96H80.18c-14.88,0-26.96-12.08-26.96-26.96V62.02c0-12.86,10.44-23.31,23.31-23.31Z"/>
    <path class="cls-15" d="M647.76,38.72h491.55c12.86,0,23.31,10.44,23.31,23.31v120.79c0,14.88-12.08,26.96-26.96,26.96h-484.23c-14.88,0-26.96-12.08-26.96-26.96V62.02c0-12.86,10.44-23.31,23.31-23.31Z"/>
    <path class="cls-15" d="M1219.01,38.72h491.55c12.86,0,23.31,10.44,23.31,23.31v120.79c0,14.88-12.08,26.96-26.96,26.96h-484.23c-14.88,0-26.96-12.08-26.96-26.96V62.02c0-12.86,10.44-23.31,23.31-23.31Z"/>
    <path class="cls-15" d="M76.52,246.01h491.55c12.86,0,23.31,10.44,23.31,23.31v120.79c0,14.88-12.08,26.96-26.96,26.96H80.18c-14.88,0-26.96-12.08-26.96-26.96v-120.79c0-12.86,10.44-23.31,23.31-23.31Z"/>
    <path class="cls-15" d="M647.76,246.01h491.55c12.86,0,23.31,10.44,23.31,23.31v120.79c0,14.88-12.08,26.96-26.96,26.96h-484.23c-14.88,0-26.96-12.08-26.96-26.96v-120.79c0-12.86,10.44-23.31,23.31-23.31Z"/>
    <path class="cls-15" d="M1219.01,246.01h491.55c12.86,0,23.31,10.44,23.31,23.31v120.79c0,14.88-12.08,26.96-26.96,26.96h-484.23c-14.88,0-26.96-12.08-26.96-26.96v-120.79c0-12.86,10.44-23.31,23.31-23.31Z"/>
    <path class="cls-15" d="M76.52,453.3h491.55c12.86,0,23.31,10.44,23.31,23.31v120.79c0,14.88-12.08,26.96-26.96,26.96H80.18c-14.88,0-26.96-12.08-26.96-26.96v-120.79c0-12.86,10.44-23.31,23.31-23.31Z"/>
    <path class="cls-15" d="M647.76,453.3h491.55c12.86,0,23.31,10.44,23.31,23.31v120.79c0,14.88-12.08,26.96-26.96,26.96h-484.23c-14.88,0-26.96-12.08-26.96-26.96v-120.79c0-12.86,10.44-23.31,23.31-23.31Z"/>
    <path class="cls-15" d="M1219.01,453.3h491.55c12.86,0,23.31,10.44,23.31,23.31v120.79c0,14.88-12.08,26.96-26.96,26.96h-484.23c-14.88,0-26.96-12.08-26.96-26.96v-120.79c0-12.86,10.44-23.31,23.31-23.31Z"/>
    <path class="cls-15" d="M76.52,660.59h491.55c12.86,0,23.31,10.44,23.31,23.31v120.79c0,14.88-12.08,26.96-26.96,26.96H80.18c-14.88,0-26.96-12.08-26.96-26.96v-120.79c0-12.86,10.44-23.31,23.31-23.31Z"/>
    <path class="cls-15" d="M647.76,660.59h491.55c12.86,0,23.31,10.44,23.31,23.31v120.79c0,14.88-12.08,26.96-26.96,26.96h-484.23c-14.88,0-26.96-12.08-26.96-26.96v-120.79c0-12.86,10.44-23.31,23.31-23.31Z"/>
    <path class="cls-15" d="M1219.01,660.59h491.55c12.86,0,23.31,10.44,23.31,23.31v120.79c0,14.88-12.08,26.96-26.96,26.96h-484.23c-14.88,0-26.96-12.08-26.96-26.96v-120.79c0-12.86,10.44-23.31,23.31-23.31Z"/>
    <text class="cls-2" transform="translate(124.05 170.74)"><tspan x="0" y="0">Analvtics and Automation</tspan></text>
    <text class="cls-2" transform="translate(739.29 171.16)"><tspan x="0" y="0">Artificial Intelligence</tspan></text>
    <text class="cls-2" transform="translate(1421.2 171.16)"><tspan x="0" y="0">Cloud</tspan></text>
    <text class="cls-2" transform="translate(218.06 378.14)"><tspan x="0" y="0">Collaboration</tspan></text>
    <text class="cls-2" transform="translate(804.16 378.26)"><tspan x="0" y="0">Data Center</tspan></text>
    <text class="cls-2" transform="translate(1277.03 377.77)"><tspan x="0" y="0">Intent-Based Networking</tspan></text>
    <text class="cls-2" transform="translate(189.72 585.24)"><tspan x="0" y="0">Internet of Things</tspan></text>
    <text class="cls-2" transform="translate(732.47 585.53)"><tspan x="0" y="0">Wireless and Mobility</tspan></text>
    <text class="cls-2" transform="translate(1221.4 585.44)"><tspan x="0" y="0">Network Architecture: Cisco DNA</tspan></text>
    <text class="cls-2" transform="translate(259 792.68)"><tspan x="0" y="0">Security</tspan></text>
    <text class="cls-2" transform="translate(827.54 793.21)"><tspan x="0" y="0">Software</tspan></text>
    <text class="cls-2" transform="translate(1242.24 793.01)"><tspan x="0" y="0">Software-Defined Netwarking</tspan></text>
  </g>
</svg>